<?xml version="1.0" encoding="UTF-8"?>
<svg version="1.1" xmlns="http://www.w3.org/2000/svg" width="512" height="512">
<path d="M0 0 C13.81120286 10.66840592 23.97015137 23.08091456 31.28125 38.87890625 C31.78921112 39.96859962 31.78921112 39.96859962 32.30743408 41.08030701 C36.14823511 49.41563316 39.63334961 57.89689449 43.10177612 66.39227295 C44.73889889 70.4016524 46.38604737 74.4068912 48.03257751 78.41241455 C48.89700815 80.51538008 49.7609879 82.618531 50.62452698 84.72186279 C55.19746144 95.85567553 59.82613716 106.96604972 64.4609375 118.07421875 C65.29504183 120.07436543 66.12910745 122.07452824 66.96313477 124.07470703 C68.63980331 128.095354 70.31682927 132.11585162 71.99414062 136.13623047 C98.63400196 199.99127229 98.63400196 199.99127229 108.59237671 224.11437988 C110.51598673 228.77178522 112.45163235 233.42391822 114.39811707 238.07180786 C115.60443409 240.95795137 116.80148639 243.84787575 117.99636841 246.73876953 C118.54048633 248.04982652 119.08833364 249.35934441 119.64059448 250.66699219 C124.62497152 262.47832333 128.98005043 275.27113461 129.5234375 288.19921875 C129.60078125 289.56626953 129.60078125 289.56626953 129.6796875 290.9609375 C130.51171227 318.59109332 120.58571441 343.80848285 101.92578125 364.01171875 C83.49978688 383.08560322 59.29069235 393.75760168 32.80957031 394.53369141 C14.99846938 394.78708897 -0.62226094 391.26843317 -16.4765625 383.19921875 C-17.52199219 382.67585938 -18.56742187 382.1525 -19.64453125 381.61328125 C-36.12271298 372.68850647 -49.07780947 359.0477444 -57.7578125 342.53125 C-58.14076981 341.80414825 -58.52372711 341.07704651 -58.91828918 340.32791138 C-63.56687327 331.31939458 -67.35587889 321.96018481 -71.1640625 312.57421875 C-71.89050114 310.80306739 -72.61771282 309.0322329 -73.34570312 307.26171875 C-77.44877976 297.26475256 -81.48253025 287.24021009 -85.4765625 277.19921875 C-90.16173845 284.84819748 -94.53998208 292.64762878 -98.8515625 300.51171875 C-99.55099622 301.78420382 -100.2506261 303.05658109 -100.95043945 304.32885742 C-102.03635424 306.30324374 -103.12207896 308.27773274 -104.20704651 310.25263977 C-106.67162071 314.73859404 -109.14370908 319.22032767 -111.62109375 323.69921875 C-117.85086016 334.96499088 -124.05603752 346.24173707 -130.1640625 357.57421875 C-134.84130249 366.25120153 -139.64866742 374.84522173 -144.52978516 383.40893555 C-148.65384781 390.67216387 -152.61075615 398.01615438 -156.5390625 405.38671875 C-173.32013419 436.72886136 -191.23241434 464.3455743 -227.0065918 475.27050781 C-246.55756535 481.08414633 -267.98698486 481.66208387 -287.4765625 475.19921875 C-288.10385254 474.99554688 -288.73114258 474.791875 -289.37744141 474.58203125 C-314.14703183 466.33186698 -333.72243401 448.93451008 -345.77685547 425.93994141 C-357.68715352 402.05170809 -359.85370398 374.7053823 -351.6940918 349.27514648 C-349.04310463 341.52319896 -345.33123796 334.40265218 -341.4765625 327.19921875 C-340.34476798 325.05744178 -339.21328252 322.91550146 -338.08203125 320.7734375 C-331.66730325 308.67738163 -325.10700691 296.6760022 -318.3215332 284.78295898 C-314.26147925 277.64671207 -310.34833831 270.43912474 -306.4765625 263.19921875 C-301.56668326 254.01884859 -296.52671874 244.9271084 -291.37109375 235.8828125 C-287.29734978 228.71183946 -283.3660286 221.47157589 -279.4765625 214.19921875 C-274.56664628 205.01886766 -269.52671933 195.92710945 -264.37109375 186.8828125 C-260.29734038 179.71182291 -256.36662581 172.47126861 -252.4765625 165.19921875 C-214.41534258 94.16006275 -214.41534258 94.16006275 -171.4765625 80.19921875 C-167.07698796 78.95416909 -163.07915016 78.19921875 -158.4765625 78.19921875 C-158.52296875 77.61398438 -158.569375 77.02875 -158.6171875 76.42578125 C-159.57718247 53.59161511 -148.81259479 30.79681126 -134.0390625 13.88671875 C-98.75183996 -23.41866383 -42.17822349 -30.66902371 0 0 Z M-118.4765625 22.19921875 C-119.63671875 23.34003906 -119.63671875 23.34003906 -120.8203125 24.50390625 C-134.930662 39.24245624 -140.72027389 57.25092576 -142.4765625 77.19921875 C-141.9189624 77.26391357 -141.3613623 77.3286084 -140.78686523 77.39526367 C-118.6611368 80.04307812 -99.12506052 85.9086208 -81.4765625 100.19921875 C-80.56132812 100.93785156 -79.64609375 101.67648438 -78.703125 102.4375 C-60.67689876 117.86330425 -49.45023747 140.79935947 -46.4765625 164.19921875 C-46.25657691 168.93297014 -46.28516151 173.64926349 -46.3515625 178.38671875 C-46.36058594 179.62486328 -46.36960937 180.86300781 -46.37890625 182.13867188 C-46.40222974 185.15906386 -46.43495773 188.17903274 -46.4765625 191.19921875 C-37.69110304 188.99325079 -29.53695919 185.37708985 -21.2517395 181.79159546 C-16.85672946 179.89033998 -12.45380095 178.00761622 -8.05078125 176.125 C-7.12434311 175.72859818 -6.19790497 175.33219635 -5.24339294 174.92378235 C7.91961991 169.30496036 21.1651005 163.88388287 34.40332031 158.4453125 C35.34581131 158.05765213 36.28830231 157.66999176 37.25935364 157.27058411 C39.00972721 156.55082307 40.7605713 155.83220458 42.51200867 155.11503601 C47.89243361 152.90321836 53.21983262 150.58932119 58.5234375 148.19921875 C52.83208562 133.84719934 46.97797818 119.56889687 41.0234375 105.32421875 C40.59334381 104.29527496 40.16325012 103.26633118 39.72012329 102.20620728 C37.06129674 95.84632472 37.06129674 95.84632472 34.4009552 89.48707581 C31.92459213 83.56607182 29.46261029 77.63946667 27.01864624 71.70501709 C25.59025974 68.23949969 24.15398538 64.7772848 22.71630859 61.31561279 C22.05625031 59.72096616 21.39971967 58.12485387 20.74707031 56.52716064 C15.23480569 43.04133614 8.84344699 31.68952543 -1.4765625 21.19921875 C-2.23710937 20.42578125 -2.99765625 19.65234375 -3.78125 18.85546875 C-19.63344386 3.67894217 -40.99145574 -3.45431185 -62.77734375 -3.046875 C-84.49965945 -1.60177902 -102.92529524 6.90040713 -118.4765625 22.19921875 Z M-206.2109375 120.53515625 C-212.96416833 128.47602423 -217.97097387 137.37756119 -222.9140625 146.51171875 C-223.60851878 147.78443248 -224.30360095 149.05680487 -224.99926758 150.32885742 C-226.4413014 152.96666996 -227.88066304 155.60591491 -229.31835938 158.24609375 C-231.40393381 162.07160362 -233.50730454 165.8870721 -235.6171875 169.69921875 C-236.12168175 170.61086288 -236.12168175 170.61086288 -236.6363678 171.54092407 C-237.31061401 172.75917442 -237.98489462 173.97740573 -238.65921021 175.19561768 C-244.52717882 185.80098143 -250.33303082 196.4385196 -256.07763672 207.11132812 C-259.64414525 213.72042564 -263.33615392 220.23808024 -267.18359375 226.6875 C-268.70540833 229.17294462 -268.70540833 229.17294462 -268.4765625 232.19921875 C-267.37183594 232.77027344 -266.26710938 233.34132813 -265.12890625 233.9296875 C-256.1293335 238.6097404 -247.22634689 243.42485129 -238.4140625 248.44921875 C-230.16341134 253.15283497 -221.8518296 257.72131629 -213.4765625 262.19921875 C-204.29614031 267.10899936 -195.20444983 272.14906383 -186.16015625 277.3046875 C-177.91734386 281.98733058 -169.57746646 286.47718431 -161.21411133 290.94018555 C-152.63861763 295.5310934 -144.17090925 300.29536329 -135.77148438 305.20117188 C-134.44020508 305.9678418 -134.44020508 305.9678418 -133.08203125 306.75 C-131.92417114 307.42542847 -131.92417114 307.42542847 -130.74291992 308.11450195 C-128.32192539 309.27323067 -126.11954044 309.7847312 -123.4765625 310.19921875 C-123.13512207 309.5664502 -122.79368164 308.93368164 -122.44189453 308.28173828 C-115.20306172 294.87352836 -107.90367818 281.50390799 -100.4765625 268.19921875 C-93.06729661 254.9168331 -85.6729474 241.62704921 -78.4140625 228.26171875 C-77.90254639 227.32247559 -77.39103027 226.38323242 -76.86401367 225.41552734 C-64.29050434 202.18667681 -57.53005854 180.80518907 -64.48046875 154.3828125 C-71.65635332 131.29209482 -86.08410672 113.54008538 -107.4765625 102.19921875 C-141.96095046 85.78872811 -179.46754327 94.10762889 -206.2109375 120.53515625 Z M55.38671875 166.99609375 C54.65601669 167.29677261 53.92531464 167.59745148 53.17247009 167.90724182 C50.72480738 168.91610693 48.28040226 169.9326321 45.8359375 170.94921875 C44.10465572 171.66470248 42.37320675 172.37978176 40.64160156 173.09448242 C30.82176132 177.15231588 21.01525784 181.2423222 11.20703125 185.328125 C10.17979446 185.75564056 9.15255768 186.18315613 8.0941925 186.62362671 C2.92545431 188.77596496 -2.23938742 190.93687283 -7.3972168 193.11523438 C-15.95063672 196.71894836 -24.47636793 200.2932469 -33.2421875 203.3515625 C-46.18645961 207.32058688 -46.18645961 207.32058688 -55.47192383 216.43530273 C-56.68654029 219.12984321 -57.60845335 221.8832236 -58.52392578 224.69140625 C-60.54705663 230.01729044 -63.52502528 234.91795274 -66.2890625 239.88671875 C-67.40046575 241.93189722 -68.51118355 243.97744838 -69.62109375 246.0234375 C-71.08405419 248.70894267 -72.39281709 251.09774469 -74.3425293 253.46020508 C-75.89905079 257.2196485 -74.9026059 259.13137942 -73.47140503 262.82333374 C-73.14310699 263.60737579 -72.81480896 264.39141785 -72.4765625 265.19921875 C-72.19362335 265.92001617 -71.9106842 266.6408136 -71.61917114 267.38345337 C-70.73388934 269.62111623 -69.81467617 271.84221397 -68.88671875 274.0625 C-68.54603363 274.88455933 -68.20534851 275.70661865 -67.8543396 276.55358887 C-66.75295009 279.20785678 -65.64658544 281.86000469 -64.5390625 284.51171875 C-63.97156784 285.87240982 -63.97156784 285.87240982 -63.39260864 287.2605896 C-61.475111 291.85745119 -59.55410964 296.45282643 -57.62988281 301.046875 C-56.00336193 304.93284202 -54.39029969 308.82409392 -52.78608704 312.71931458 C-51.50563215 315.82106803 -50.20876858 318.91588781 -48.9140625 322.01171875 C-48.47521729 323.08655518 -48.03637207 324.1613916 -47.58422852 325.26879883 C-38.30707892 347.22814841 -22.30478755 362.81283754 -0.4765625 372.19921875 C20.61298602 380.58264177 42.61344385 379.41185376 63.45898438 371.09521484 C73.09168303 366.91451427 81.13304796 360.57724977 88.5234375 353.19921875 C89.29429687 352.43996094 90.06515625 351.68070313 90.859375 350.8984375 C105.39284063 335.74494347 112.46801202 315.85852024 112.8984375 295.07421875 C112.92462158 294.35339111 112.95080566 293.63256348 112.9777832 292.88989258 C113.02052981 278.22780635 107.36333468 264.30386079 101.7734375 251.01171875 C101.11186951 249.41187349 100.45133103 247.81160216 99.79174805 246.2109375 C97.72094848 241.19916542 95.62372338 236.19868941 93.5234375 231.19921875 C92.83336084 229.55262829 92.14341848 227.90598155 91.45361328 226.25927734 C88.42678402 219.03808901 85.38918829 211.82152301 82.33889771 204.61021423 C78.3581785 195.19885521 74.42360709 185.76923113 70.5234375 176.32421875 C70.26341949 175.69459229 70.00340149 175.06496582 69.73550415 174.41625977 C68.32977113 171.01128335 66.92573684 167.60561064 65.5234375 164.19921875 C61.72026934 164.19921875 58.83547079 165.55416486 55.38671875 166.99609375 Z M-277.4765625 246.19921875 C-288.38669856 265.50631589 -299.18606508 284.87386991 -309.69116211 304.40454102 C-312.91631301 310.38077492 -316.22610188 316.30030418 -319.60327148 322.19189453 C-334.04401863 347.41771524 -344.89352634 371.33571498 -337.45629883 400.95898438 C-334.10437961 412.78369398 -328.69474538 424.01739938 -320.4765625 433.19921875 C-319.87328125 433.94300781 -319.27 434.68679688 -318.6484375 435.453125 C-304.97223212 451.88124975 -284.33350329 460.63699985 -263.4765625 463.19921875 C-241.19561165 464.86868481 -218.99817753 457.02314338 -202.10546875 442.60546875 C-188.75823861 430.38868753 -181.14395337 414.90416811 -172.6953125 399.17578125 C-170.03478133 394.22475757 -167.33878821 389.29569884 -164.6015625 384.38671875 C-164.21226562 383.68812744 -163.82296875 382.98953613 -163.421875 382.26977539 C-162.58368147 380.76673289 -161.74512315 379.26389377 -160.90625 377.76123047 C-151.34173653 360.62154394 -141.83920267 343.4500884 -132.4765625 326.19921875 C-135.83273702 323.38446089 -139.1505932 321.14500901 -143.01953125 319.09765625 C-144.08341064 318.53062988 -145.14729004 317.96360352 -146.2434082 317.37939453 C-147.37222412 316.78368652 -148.50104004 316.18797852 -149.6640625 315.57421875 C-152.03768537 314.31089101 -154.40934076 313.04388517 -156.78125 311.77734375 C-157.93592773 311.16181641 -159.09060547 310.54628906 -160.28027344 309.91210938 C-164.30539703 307.7550465 -168.30335583 305.55307417 -172.2890625 303.32421875 C-179.94239455 299.04993197 -187.61255722 294.8067138 -195.2890625 290.57421875 C-196.54012619 289.88428777 -197.7911841 289.1943463 -199.04223633 288.50439453 C-201.58620511 287.10145746 -204.13024231 285.69864454 -206.67431641 284.29589844 C-210.37303326 282.25642457 -214.07135636 280.21623765 -217.76953125 278.17578125 C-218.36593918 277.84671783 -218.96234711 277.51765442 -219.576828 277.17861938 C-222.56810671 275.52817323 -225.55933701 273.87763939 -228.55053711 272.22705078 C-234.19226063 269.1139816 -239.83437919 266.00163491 -245.47784424 262.89172363 C-248.13080617 261.42971588 -250.78355084 259.96731415 -253.4362793 258.50488281 C-254.69577381 257.81067577 -255.95537367 257.11665984 -257.21508789 256.42285156 C-258.96657907 255.45817321 -260.71767152 254.49277102 -262.46875 253.52734375 C-263.52030273 252.94791016 -264.57185547 252.36847656 -265.65527344 251.77148438 C-268.01251875 250.45782396 -270.34559438 249.11336728 -272.671875 247.74609375 C-275.23461509 246.03823596 -275.23461509 246.03823596 -277.4765625 246.19921875 Z " fill="#000000" transform="translate(369.4765625,25.80078125)"/>
<path d="M0 0 C2.57586948 2.16040666 2.93331693 3.58238313 3.4609375 6.88671875 C3.3506196 12.92056033 -0.4261748 18.08903319 -3.3125 23.1875 C-4.27251923 24.92893592 -5.23253735 26.67037246 -6.19239807 28.41189575 C-8.33714044 32.28805305 -10.51718544 36.14443034 -12.69433594 40.00244141 C-13.72329394 41.82586698 -14.749399 43.65090633 -15.7722168 45.4777832 C-16.68279448 47.10054982 -17.6028084 48.71807628 -18.53442383 50.32885742 C-23.13060078 58.48606847 -25.56950706 66.48586799 -25.4375 75.875 C-25.42920166 76.65238525 -25.42090332 77.42977051 -25.41235352 78.23071289 C-25.05734659 90.4386556 -20.30551626 101.46011942 -11.79296875 110.2890625 C-8.36646685 113.40618689 -4.78407115 116.20754001 -1 118.875 C2 121 2 121 3 123 C3.35173852 126.79877599 3.52701444 129.14360153 1.5 132.4375 C-2.05543156 134.65964473 -5.00217478 134.91602034 -9 134 C-12.34080847 132.4048392 -15.11483145 130.30525925 -18 128 C-18.81726563 127.36964844 -19.63453125 126.73929687 -20.4765625 126.08984375 C-33.62555783 115.20019592 -41.09218715 99.88697711 -43 83 C-44.24139584 65.27449546 -39.45057701 51.35026605 -31 36 C-30.42685059 34.94651367 -29.85370117 33.89302734 -29.26318359 32.80761719 C-27.30974266 29.22072565 -25.34617663 25.63966393 -23.375 22.0625 C-22.74166748 20.91289795 -22.10833496 19.7632959 -21.45581055 18.57885742 C-9.83302636 -2.28266683 -9.83302636 -2.28266683 0 0 Z " fill="#000000" transform="translate(90,330)"/>
<path d="M0 0 C4.108507 4.16445439 5.94661276 9.13829016 8.08203125 14.47265625 C8.45929855 15.39155136 8.83656586 16.31044647 9.2252655 17.25718689 C10.82980963 21.16565149 12.41531948 25.0817439 14.0012207 28.99780273 C25.10175497 56.74908776 25.10175497 56.74908776 48.828125 73.84765625 C53.20128109 75.43642601 57.37633793 76.49845022 62 77 C62.67804688 77.0825 63.35609375 77.165 64.0546875 77.25 C70.03426947 77.61103136 75.55116351 76.00375515 81.24072266 74.33544922 C85.53040093 73.13223394 88.68128786 72.85605541 93 74 C95.59191186 75.69814915 95.96408796 76.8820033 96.875 79.875 C97.03142617 83.78565436 96.56562006 85.04564962 94 88 C82.23423883 95.96324351 65.97607426 95.21122314 52.4609375 93.5703125 C35.99932472 89.97626766 20.81328535 79.65201862 11.45507812 65.69604492 C5.55198151 55.9765069 1.4497887 45.57516415 -2.8125 35.0625 C-3.58187513 33.18391401 -4.35205209 31.30565621 -5.12304688 29.42773438 C-6.82782817 25.26966519 -8.53049981 21.11082755 -10.20864868 16.94192505 C-10.86203463 15.33855811 -11.547331 13.74823472 -12.2409668 12.16186523 C-13.39951216 8.86211639 -12.80575722 6.34699151 -12 3 C-8.79905159 -1.36492965 -4.94820661 -1.41377332 0 0 Z " fill="#000000" transform="translate(333,292)"/>
</svg>
