<?xml version="1.0" encoding="UTF-8"?>
<svg version="1.1" xmlns="http://www.w3.org/2000/svg" width="512" height="512">
<path d="M0 0 C14.42005937 12.58989842 14.42005937 12.58989842 15.17578125 18.2578125 C14.80078125 21.4453125 14.80078125 21.4453125 12.67578125 24.3203125 C9.80078125 26.4453125 9.80078125 26.4453125 6.98828125 27.1953125 C2.09089482 26.04298628 -0.65879873 22.89411352 -4.19921875 19.4453125 C-17.72778334 6.28309202 -34.81181693 -1.85906563 -53.8359375 -2.6171875 C-75.50162543 -2.21457309 -94.20843761 4.70247668 -110.07421875 19.6953125 C-123.60856049 33.9859851 -130.6036472 52.04290382 -130.57421875 71.5703125 C-130.57405762 72.57642578 -130.57389648 73.58253906 -130.57373047 74.61914062 C-130.44406749 83.15232921 -128.93212689 90.38622573 -126.19921875 98.4453125 C-124.36354487 104.27294842 -123.70725278 108.520694 -125.19921875 114.4453125 C-128.27608496 120.26938069 -131.80755045 123.47243048 -137.88671875 125.9453125 C-145.88146167 127.56206014 -153.04949264 122.0087929 -159.69921875 118.1953125 C-175.85847881 108.92919014 -192.62037227 102.76366951 -210.69140625 98.328125 C-211.38210205 98.15571289 -212.07279785 97.98330078 -212.78442383 97.80566406 C-214.62815302 97.35309787 -216.47797459 96.92555486 -218.328125 96.5 C-221.60291649 95.29701537 -222.59687735 94.50972299 -224.19921875 91.4453125 C-224.82421875 88.859375 -224.82421875 88.859375 -225.19921875 86.0703125 C-226.64411927 77.23644917 -230.14783999 72.56825029 -237.19921875 67.1328125 C-242.99055396 64.02804855 -250.45832959 64.37990727 -256.640625 66.140625 C-262.55985843 68.81382719 -265.93661698 73.05538772 -268.94921875 78.7578125 C-270.19274131 82.42620405 -270.55610603 85.3979043 -270.59765625 89.234375 C-271.58353616 92.85780377 -273.2177681 94.17038428 -276.19921875 96.4453125 C-279.7930229 97.72865203 -283.46856954 98.4772459 -287.19921875 99.2578125 C-307.88048206 104.03558978 -328.78851169 111.66846418 -345.88671875 124.5703125 C-348.71839457 126.63640525 -350.79755887 127.95320656 -354.32421875 128.2578125 C-358.76121432 127.32747472 -360.96230988 125.74808248 -364.39453125 122.91015625 C-368.92182815 119.23540227 -374.61723627 118.15488149 -380.3671875 118.62109375 C-387.10948304 119.76995306 -392.08375341 122.84361846 -396.55078125 128.0078125 C-399.85169625 132.94731121 -400.53615565 138.60507299 -400.19921875 144.4453125 C-398.9561071 149.53475785 -397.05374141 153.74951849 -393.44921875 157.5703125 C-390.97170528 160.73602415 -390.75695486 162.41558759 -390.87841797 166.3671875 C-391.40957479 169.80798419 -393.13280177 172.08417972 -395.13671875 174.8828125 C-395.97269234 176.10711252 -396.80322515 177.33514141 -397.62890625 178.56640625 C-398.27037598 179.51942627 -398.27037598 179.51942627 -398.92480469 180.49169922 C-409.77902537 197.13067889 -416.6977039 216.20820612 -420.38964844 235.65722656 C-421.47733818 240.95788734 -422.64321388 244.09763936 -427.19921875 247.4453125 C-429.8828125 248.265625 -429.8828125 248.265625 -432.63671875 248.5703125 C-441.48053373 249.86423979 -446.09265224 253.41517216 -451.51171875 260.4453125 C-454.6164827 266.23664771 -454.26462398 273.70442334 -452.50390625 279.88671875 C-449.83070406 285.80595218 -445.58914353 289.18271073 -439.88671875 292.1953125 C-436.2183272 293.43883506 -433.24662695 293.80219978 -429.41015625 293.84375 C-425.77553651 294.83267481 -424.47965263 296.44785403 -422.19921875 299.4453125 C-420.87356825 303.14270504 -420.07778059 306.92030103 -419.26171875 310.7578125 C-416.95457832 320.7020495 -414.23983465 330.07365969 -410.19921875 339.4453125 C-409.90821289 340.12609863 -409.61720703 340.80688477 -409.31738281 341.50830078 C-402.08155116 358.63248229 -402.08155116 358.63248229 -391.19921875 373.4453125 C-390.38479176 380.07707515 -390.38479176 380.07707515 -392.46875 383.578125 C-393.53849428 384.94718946 -394.62722728 386.30162752 -395.734375 387.640625 C-399.40912898 392.1679219 -400.48964976 397.86333002 -400.0234375 403.61328125 C-398.87846472 410.33276798 -395.90467135 415.69405371 -390.37890625 419.796875 C-384.56532126 423.06848761 -378.07514657 424.41715281 -371.55078125 422.78125 C-367.49162217 421.28192097 -364.22574578 419.67648672 -361.07421875 416.6953125 C-357.9085071 414.21779903 -356.22894366 414.00304861 -352.27734375 414.12451172 C-348.83654706 414.65566854 -346.56035153 416.37889552 -343.76171875 418.3828125 C-342.53741873 419.21878609 -341.30938984 420.0493189 -340.078125 420.875 C-339.44277832 421.30264648 -338.80743164 421.73029297 -338.15283203 422.17089844 C-321.51385236 433.02511912 -302.43632513 439.94379765 -282.98730469 443.63574219 C-277.68664391 444.72343193 -274.54689189 445.88930763 -271.19921875 450.4453125 C-270.37890625 453.12890625 -270.37890625 453.12890625 -270.07421875 455.8828125 C-268.78029146 464.72662748 -265.22935909 469.33874599 -258.19921875 474.7578125 C-252.40788354 477.86257645 -244.94010791 477.51071773 -238.7578125 475.75 C-232.82082034 473.06877773 -228.96688667 468.72384363 -226.51171875 462.6953125 C-225.14631385 458.75839504 -224.48473494 454.76570114 -223.921875 450.64453125 C-222.96942851 447.74600491 -221.74883635 447.07495364 -219.19921875 445.4453125 C-216.87524414 444.6809082 -216.87524414 444.6809082 -214.296875 444.12109375 C-213.33483154 443.90163086 -212.37278809 443.68216797 -211.3815918 443.45605469 C-209.83725464 443.1104248 -209.83725464 443.1104248 -208.26171875 442.7578125 C-187.58654879 437.8270642 -166.6362654 430.24203596 -149.51171875 417.3203125 C-146.68004293 415.25421975 -144.60087863 413.93741844 -141.07421875 413.6328125 C-136.63722318 414.56315028 -134.43612762 416.14254252 -131.00390625 418.98046875 C-126.47660935 422.65522273 -120.78120123 423.73574351 -115.03125 423.26953125 C-108.31176327 422.12455847 -102.95047754 419.1507651 -98.84765625 413.625 C-95.57604364 407.81141501 -94.22737844 401.32124032 -95.86328125 394.796875 C-97.36261028 390.73771592 -98.96804453 387.47183953 -101.94921875 384.3203125 C-104.42673222 381.15460085 -104.64148264 379.47503741 -104.52001953 375.5234375 C-103.98886271 372.08264081 -102.26563573 369.80644528 -100.26171875 367.0078125 C-99.42574516 365.78351248 -98.59521235 364.55548359 -97.76953125 363.32421875 C-97.34188477 362.68887207 -96.91423828 362.05352539 -96.47363281 361.39892578 C-85.61941213 344.75994611 -78.7007336 325.68241888 -75.00878906 306.23339844 C-73.92109932 300.93273766 -72.75522362 297.79298564 -68.19921875 294.4453125 C-65.515625 293.625 -65.515625 293.625 -62.76171875 293.3203125 C-53.91790377 292.02638521 -49.30578526 288.47545284 -43.88671875 281.4453125 C-40.7819548 275.65397729 -41.13381352 268.18620166 -42.89453125 262.00390625 C-45.56773344 256.08467282 -49.80929397 252.70791427 -55.51171875 249.6953125 C-59.1801103 248.45178994 -62.15181055 248.08842522 -65.98828125 248.046875 C-69.61171002 247.06099509 -70.92429053 245.42676315 -73.19921875 242.4453125 C-74.48255828 238.85150835 -75.23115215 235.17596171 -76.01171875 231.4453125 C-80.88973827 210.33013693 -89.14262977 190.96157074 -100.82421875 172.6953125 C-103.22844031 168.72937437 -104.14083057 166.15337162 -103.19921875 161.4453125 C-101.79100511 158.25888398 -100.09535293 155.36371032 -98.19921875 152.4453125 C-97.60109375 151.5171875 -97.00296875 150.5890625 -96.38671875 149.6328125 C-92.27746855 145.5235623 -88.09853436 143.62911724 -82.32421875 143.0703125 C-78.42602211 143.27508158 -74.68965529 144.12077499 -70.87890625 144.92578125 C-51.85097383 148.61487019 -32.41917403 144.58034192 -15.98046875 134.39453125 C-11.32606156 131.13252396 -7.21703428 127.45611614 -3.19921875 123.4453125 C-2.26142578 122.52492187 -2.26142578 122.52492187 -1.3046875 121.5859375 C11.42264319 108.14036016 16.99558854 90.64630098 16.98828125 72.4453125 C16.99251099 70.90351318 16.99251099 70.90351318 16.99682617 69.33056641 C16.96153807 62.65110814 16.47173007 56.48503554 14.9453125 49.96875 C14.75324713 46.6153925 15.81129561 45.08868503 17.80078125 42.4453125 C20.89251877 40.89944374 23.39507677 41.15171729 26.80078125 41.4453125 C32.33140608 45.75052063 32.77367881 51.85676039 33.80078125 58.4453125 C34.19676749 62.87357377 34.27948537 67.25106195 34.23828125 71.6953125 C34.22925781 72.87335449 34.22023438 74.05139648 34.2109375 75.26513672 C33.71368842 100.46254308 23.45805552 121.43434695 5.5859375 139.14648438 C-14.80766223 158.44392812 -39.66141363 163.38239299 -66.90332031 162.65869141 C-72.07431948 162.32391709 -77.12076312 161.4505314 -82.19921875 160.4453125 C-83.68421875 162.9203125 -83.68421875 162.9203125 -85.19921875 165.4453125 C-84.64234375 166.40308594 -84.08546875 167.36085937 -83.51171875 168.34765625 C-72.06204024 188.22848464 -62.82349703 208.83772982 -58.19921875 231.4453125 C-57.36519531 231.65285156 -56.53117187 231.86039063 -55.671875 232.07421875 C-47.79781479 234.2298893 -42.1180506 236.80261277 -36.19921875 242.4453125 C-35.63589844 242.96867187 -35.07257813 243.49203125 -34.4921875 244.03125 C-26.68901111 252.13074954 -24.47898651 261.96102923 -24.68017578 272.86254883 C-25.20859525 284.05058712 -29.17430324 292.55481768 -37.19921875 300.4453125 C-42.43257045 304.59913873 -46.91628899 307.37297891 -53.57421875 308.1953125 C-56.14585852 308.69139868 -56.14585852 308.69139868 -58.19921875 310.4453125 C-60.64086814 315.52156837 -61.41785576 321.34586778 -62.58203125 326.81689453 C-66.30410155 342.66808474 -73.8527832 359.35030151 -83.1328125 372.6875 C-85.10183575 375.71062332 -85.10183575 375.71062332 -84.6640625 379.31640625 C-84.16003906 380.16332031 -83.65601563 381.01023437 -83.13671875 381.8828125 C-77.55733103 392.30821481 -76.74811916 402.34351941 -80.16796875 413.6796875 C-84.18613484 424.45567838 -91.27530523 432.3102397 -101.57421875 437.4453125 C-111.82969481 441.30095184 -124.09862611 441.21230677 -134.19921875 437.0078125 C-135.87525288 436.17217617 -137.54413096 435.32170447 -139.19921875 434.4453125 C-142.29165909 433.02243184 -142.29165909 433.02243184 -145.39453125 435.03515625 C-146.70869503 435.81051967 -148.01829018 436.59365763 -149.32421875 437.3828125 C-167.73732199 448.05499043 -187.27320329 456.16499116 -208.19921875 460.4453125 C-208.40675781 461.27933594 -208.61429687 462.11335938 -208.828125 462.97265625 C-210.98379555 470.84671646 -213.55651902 476.52648065 -219.19921875 482.4453125 C-219.72257813 483.00863281 -220.2459375 483.57195312 -220.78515625 484.15234375 C-228.88707003 491.95784605 -238.71176848 494.15776493 -249.61425781 493.96655273 C-260.19742038 493.4741822 -268.60886716 489.92087616 -276.19921875 482.4453125 C-280.75632069 477.23848514 -283.17132557 472.93153828 -284.44921875 466.1328125 C-285.21541218 462.99621991 -285.21541218 462.99621991 -287.19921875 460.4453125 C-292.20146769 457.81689167 -298.09987236 457.12768178 -303.58691406 456.03027344 C-319.40624455 452.48792616 -336.17683627 444.7412131 -349.44140625 435.51171875 C-352.46452957 433.5426955 -352.46452957 433.5426955 -356.0703125 433.98046875 C-356.91722656 434.48449219 -357.76414062 434.98851562 -358.63671875 435.5078125 C-369.06212106 441.08720022 -379.09742566 441.89641209 -390.43359375 438.4765625 C-400.18581658 434.84014043 -407.7782157 428.75119125 -412.76953125 419.55078125 C-417.46230814 409.1060007 -418.27378804 399.52509676 -415.19921875 388.4453125 C-414.14854643 386.52213673 -413.08586315 384.60547772 -412.01171875 382.6953125 C-410.15066025 378.51065171 -409.95903272 377.08334858 -411.59765625 372.73046875 C-413.51292367 369.21359618 -415.70162305 365.87240598 -417.89160156 362.52197266 C-427.60922491 347.08916754 -433.57035227 328.18643753 -437.19921875 310.4453125 C-438.03324219 310.23777344 -438.86726563 310.03023438 -439.7265625 309.81640625 C-447.60062271 307.6607357 -453.2803869 305.08801223 -459.19921875 299.4453125 C-459.76253906 298.92195313 -460.32585937 298.39859375 -460.90625 297.859375 C-468.7117523 289.75746122 -470.91167118 279.93276277 -470.72045898 269.03027344 C-470.22808845 258.44711087 -466.67478241 250.03566409 -459.19921875 242.4453125 C-453.99239139 237.88821056 -449.68544453 235.47320568 -442.88671875 234.1953125 C-439.75012616 233.42911907 -439.75012616 233.42911907 -437.19921875 231.4453125 C-434.57079792 226.44306356 -433.88158803 220.54465889 -432.78417969 215.05761719 C-429.24183241 199.2382867 -421.49511935 182.46769498 -412.265625 169.203125 C-410.29660175 166.18000168 -410.29660175 166.18000168 -410.734375 162.57421875 C-411.23839844 161.72730469 -411.74242187 160.88039062 -412.26171875 160.0078125 C-417.84110647 149.58241019 -418.65031834 139.54710559 -415.23046875 128.2109375 C-411.21230266 117.43494662 -404.12313227 109.5803853 -393.82421875 104.4453125 C-383.56874269 100.58967316 -371.29981139 100.67831823 -361.19921875 104.8828125 C-359.52318462 105.71844883 -357.85430654 106.56892053 -356.19921875 107.4453125 C-353.10677841 108.86819316 -353.10677841 108.86819316 -350.00390625 106.85546875 C-348.68974247 106.08010533 -347.38014732 105.29696737 -346.07421875 104.5078125 C-327.66111551 93.83563457 -308.12523421 85.72563384 -287.19921875 81.4453125 C-286.99167969 80.61128906 -286.78414062 79.77726562 -286.5703125 78.91796875 C-284.41464195 71.04390854 -281.84191848 65.36414435 -276.19921875 59.4453125 C-275.67585937 58.88199219 -275.1525 58.31867188 -274.61328125 57.73828125 C-266.51378171 49.93510486 -256.68350202 47.72508026 -245.78198242 47.92626953 C-234.59394413 48.454689 -226.08971357 52.42039699 -218.19921875 60.4453125 C-214.04539252 65.6786642 -211.27155234 70.16238274 -210.44921875 76.8203125 C-209.94461368 79.39317035 -209.94461368 79.39317035 -208.19921875 81.4453125 C-203.74400936 83.21219725 -199.30336454 84.19255187 -194.62890625 85.19921875 C-177.79361256 88.85341445 -162.43581435 97.05779425 -147.43139648 105.24365234 C-145.37235542 106.35210691 -143.29666192 107.41173762 -141.19921875 108.4453125 C-141.54855469 107.28773437 -141.89789063 106.13015625 -142.2578125 104.9375 C-142.71763743 103.39849411 -143.17726227 101.85942843 -143.63671875 100.3203125 C-143.98186523 99.17949219 -143.98186523 99.17949219 -144.33398438 98.015625 C-144.6675293 96.89414063 -144.6675293 96.89414063 -145.0078125 95.75 C-145.21204834 95.06921387 -145.41628418 94.38842773 -145.62670898 93.68701172 C-151.59837375 70.30456999 -147.02801979 45.09425032 -135.19921875 24.4453125 C-121.96237312 3.54243523 -101.77320345 -11.0966779 -77.88671875 -17.4921875 C-50.26584614 -22.56023752 -22.1629153 -17.5954542 0 0 Z " fill="#000000" transform="translate(474.19921875,18.5546875)"/>
<path d="M0 0 C0.72812897 -0.00988449 1.45625793 -0.01976898 2.20645142 -0.029953 C18.51544636 -0.20561101 34.27592014 -0.12816523 50.1171875 4.23828125 C51.07447754 4.50141113 52.03176758 4.76454102 53.01806641 5.03564453 C80.77730939 12.95341408 104.55250177 27.10562673 125.1171875 47.23828125 C125.85195313 47.92277344 126.58671875 48.60726562 127.34375 49.3125 C147.50653032 68.47115779 161.11686859 95.61075239 168.1171875 122.23828125 C168.43478027 123.42043213 168.43478027 123.42043213 168.75878906 124.62646484 C175.03822772 149.13219811 174.87551508 178.8699698 168.1171875 203.23828125 C167.72249268 204.67204102 167.72249268 204.67204102 167.31982422 206.13476562 C161.44813864 226.72387929 152.28849626 245.35917362 139.1171875 262.23828125 C138.40175781 263.17542969 137.68632812 264.11257813 136.94921875 265.078125 C115.06242198 292.86518757 84.23445364 312.26892684 50.1171875 321.23828125 C49.32908691 321.45000977 48.54098633 321.66173828 47.72900391 321.87988281 C23.22327064 328.15932147 -6.51450105 327.99660883 -30.8828125 321.23828125 C-32.31657227 320.84358643 -32.31657227 320.84358643 -33.77929688 320.44091797 C-54.36841054 314.56923239 -73.00370487 305.40959001 -89.8828125 292.23828125 C-90.81996094 291.52285156 -91.75710937 290.80742187 -92.72265625 290.0703125 C-120.50971882 268.18351573 -139.91345809 237.35554739 -148.8828125 203.23828125 C-149.09454102 202.45018066 -149.30626953 201.66208008 -149.52441406 200.85009766 C-157.84819914 168.36622957 -154.92953142 128.71521979 -140.8828125 98.23828125 C-138.74747148 95.600115 -137.93048133 95.25152259 -134.5078125 94.30078125 C-130.8828125 94.23828125 -130.8828125 94.23828125 -128.0078125 95.80078125 C-125.33612342 98.86536578 -125.07484086 100.17368095 -124.8828125 104.23828125 C-125.70404891 107.66786368 -126.9146387 110.93214924 -128.1328125 114.23828125 C-133.71713794 130.12534242 -136.11911949 145.27134155 -136.1328125 162.11328125 C-136.13348724 162.85537842 -136.13416199 163.59747559 -136.13485718 164.36206055 C-136.11904675 175.29046672 -135.67623605 185.61651346 -132.8828125 196.23828125 C-132.71652344 196.91101074 -132.55023438 197.58374023 -132.37890625 198.27685547 C-126.93065928 220.1152454 -116.63790119 240.21764745 -101.8828125 257.23828125 C-100.83867188 258.46417969 -100.83867188 258.46417969 -99.7734375 259.71484375 C-90.67319451 270.13817172 -80.58742215 278.85203437 -68.8828125 286.23828125 C-67.99215088 286.80095703 -67.99215088 286.80095703 -67.08349609 287.375 C-34.16481144 307.79346965 5.47927461 313.75729308 43.1171875 305.23828125 C65.71968966 299.8846439 86.54446914 289.47196883 104.1171875 274.23828125 C105.34308594 273.19414063 105.34308594 273.19414063 106.59375 272.12890625 C117.01707797 263.02866326 125.73094062 252.9428909 133.1171875 241.23828125 C133.49230469 240.64450684 133.86742187 240.05073242 134.25390625 239.43896484 C148.6696284 216.19791792 155.34505686 190.58321464 155.3671875 163.36328125 C155.36786224 162.62118408 155.36853699 161.87908691 155.36923218 161.11450195 C155.35342175 150.18609578 154.91061105 139.86004904 152.1171875 129.23828125 C151.95089844 128.56555176 151.78460938 127.89282227 151.61328125 127.19970703 C146.16503428 105.3613171 135.87227619 85.25891505 121.1171875 68.23828125 C120.42109375 67.42101562 119.725 66.60375 119.0078125 65.76171875 C109.90756951 55.33839078 99.82179715 46.62452813 88.1171875 39.23828125 C87.52341309 38.86316406 86.92963867 38.48804688 86.31787109 38.1015625 C51.09473756 16.25371254 10.78744126 12.25316671 -29.015625 21.51464844 C-59.9770755 29.32882923 -89.7775645 49.62048016 -107.9453125 75.83984375 C-109.875255 78.22892579 -110.99986573 79.27920193 -113.8828125 80.23828125 C-117.56342025 80.10913712 -119.954489 80.01687516 -122.8203125 77.61328125 C-124.43813081 73.99698149 -124.58647382 72.20437234 -123.8828125 68.23828125 C-121.56621313 64.59178224 -118.76483684 61.44693501 -115.8828125 58.23828125 C-115.150625 57.3978125 -114.4184375 56.55734375 -113.6640625 55.69140625 C-111.44049705 53.17032148 -109.1754419 50.69664289 -106.8828125 48.23828125 C-106.18542969 47.48675781 -105.48804688 46.73523438 -104.76953125 45.9609375 C-78.52031895 18.6559982 -37.91388622 0.42539293 0 0 Z " fill="#000000" transform="translate(216.8828125,126.76171875)"/>
<path d="M0 0 C11.57517967 8.02599566 19.25422241 19.66633127 22.2421875 33.5546875 C23.70541372 51.67043719 20.49159456 64.76982028 10.0546875 79.6796875 C2.31331872 88.38256386 -10.17015834 95.78028362 -21.94921875 96.73168945 C-39.83177019 97.19385177 -54.3747093 94.76763535 -68.10546875 82.296875 C-80.06100124 69.69127809 -83.26751969 55.55917753 -83.03515625 38.84765625 C-82.57969629 25.98374498 -76.0884982 13.40419434 -66.7578125 4.5546875 C-47.46878954 -11.45036201 -21.1610036 -13.58901509 0 0 Z M-54.4453125 15.2421875 C-62.90880191 23.70567691 -66.99908529 32.05858275 -67.1953125 43.9296875 C-67.14845101 50.82650902 -66.30248401 56.50659174 -62.7578125 62.5546875 C-62.3453125 63.25851562 -61.9328125 63.96234375 -61.5078125 64.6875 C-55.75352547 73.28623573 -46.64358996 78.8168958 -36.6484375 81.01953125 C-25.23316205 82.82087791 -15.58130863 78.83920832 -6.0703125 72.8671875 C2.39317691 64.40369809 6.48346029 56.05079225 6.6796875 44.1796875 C6.63282601 37.28286598 5.78685901 31.60278326 2.2421875 25.5546875 C1.8296875 24.85085938 1.4171875 24.14703125 0.9921875 23.421875 C-4.76209953 14.82313927 -13.87203504 9.2924792 -23.8671875 7.08984375 C-35.28246295 5.28849709 -44.93431637 9.27016668 -54.4453125 15.2421875 Z " fill="#000000" transform="translate(323.7578125,282.4453125)"/>
<path d="M0 0 C7.71919844 5.36578428 14.96215289 11.77360553 16.921875 21.3359375 C18.16265395 33.52259809 16.8503177 42.35761039 9.3515625 52.44921875 C3.9396154 58.55399966 -3.12719157 62.12333927 -11.25 62.78125 C-21.75759591 63.23593347 -29.24831203 61.70350929 -37.390625 54.8984375 C-44.65524333 48.09506477 -48.10615633 42.21623053 -48.48510742 32.15893555 C-48.63364412 21.15652526 -46.4311725 14.20656449 -38.796875 6.0546875 C-29.15261813 -3.58956937 -12.40546028 -6.77972829 0 0 Z M-25.078125 15.3359375 C-28.52539053 18.46588152 -31.84084774 21.95538535 -32.31640625 26.7265625 C-32.47449408 32.81710428 -32.34303441 36.6099568 -28.078125 41.3359375 C-24.28826538 45.12579712 -20.4098698 47.01106416 -15.078125 47.3359375 C-8.76744143 46.50164374 -5.0183051 43.92533679 -1.171875 38.95703125 C1.86176683 34.46074068 1.45757403 29.59620432 0.921875 24.3359375 C-1.49931781 19.40387807 -4.78181286 15.8033747 -9.859375 13.54296875 C-15.41788594 11.72321814 -20.00214595 12.47016335 -25.078125 15.3359375 Z " fill="#000000" transform="translate(198.078125,344.6640625)"/>
<path d="M0 0 C3.58598889 2.54054385 6.15992797 5.04327701 8.4921875 8.765625 C8.90210938 9.38695312 9.31203125 10.00828125 9.734375 10.6484375 C13.58244889 17.62804738 13.74273274 26.02607545 12.4921875 33.765625 C10.09120579 41.34186763 6.27912589 47.51322792 -0.5078125 51.765625 C-1.12914062 52.17554688 -1.75046875 52.58546875 -2.390625 53.0078125 C-9.37023488 56.85588639 -17.76826295 57.01617024 -25.5078125 55.765625 C-33.08405513 53.36464329 -39.25541542 49.55256339 -43.5078125 42.765625 C-43.91773438 42.14429688 -44.32765625 41.52296875 -44.75 40.8828125 C-48.59807389 33.90320262 -48.75835774 25.50517455 -47.5078125 17.765625 C-45.10683079 10.18938237 -41.29475089 4.01802208 -34.5078125 -0.234375 C-33.88648438 -0.64429688 -33.26515625 -1.05421875 -32.625 -1.4765625 C-22.455808 -7.08315125 -9.72162164 -5.63801363 0 0 Z M-30.3828125 17.890625 C-32.07265501 22.20911142 -32.16742233 26.1923302 -31.5078125 30.765625 C-29.34482413 35.17171243 -27.11100771 37.9643747 -22.5078125 39.765625 C-17.46455866 40.44988557 -13.67704366 40.3396112 -9.0703125 38.078125 C-5.71125238 35.04677806 -3.81425619 33.02422852 -3.19140625 28.43359375 C-2.92567598 22.71610691 -3.53934098 19.16312047 -7.5078125 14.765625 C-11.34494446 11.37992033 -15.14182712 11.25271328 -20.0703125 11.4140625 C-24.73307396 12.08657617 -27.35971542 14.46444831 -30.3828125 17.890625 Z " fill="#000000" transform="translate(210.5078125,199.234375)"/>
<path d="M0 0 C5.21124298 4.67420649 8.48207214 9.20711202 9.24609375 16.27734375 C9.61779168 23.58740305 8.11594846 29.52604895 3.1640625 35.046875 C-2.84718933 40.62052612 -8.24143835 42.52556923 -16.4140625 42.3046875 C-23.95110828 41.41663679 -28.97250979 37.85869138 -33.625 32 C-37.42458825 26.47332619 -37.76781852 20.51661357 -37 14 C-35.14192232 6.77936901 -31.07107696 2.17386541 -25 -2 C-16.9546304 -6.0226848 -7.38364072 -4.89508033 0 0 Z M-18.8125 14.125 C-21.30339948 16.81259963 -21.30339948 16.81259963 -21.0625 20.125 C-20.18706667 23.01645649 -20.18706667 23.01645649 -18.3125 24.9375 C-15.10056066 26.41325591 -13.33525198 26.06444212 -10 25 C-7.9214392 23.42304368 -7.9214392 23.42304368 -7 21 C-7.07222995 17.46073241 -7.32805009 15.6951206 -9.8125 13.125 C-13.60255582 11.17582844 -15.48904611 11.61394595 -18.8125 14.125 Z " fill="#000000" transform="translate(436,104)"/>
<path d="M0 0 C5.21124298 4.67420649 8.48207214 9.20711202 9.24609375 16.27734375 C9.61779168 23.58740305 8.11594846 29.52604895 3.1640625 35.046875 C-2.84718933 40.62052612 -8.24143835 42.52556923 -16.4140625 42.3046875 C-23.95110828 41.41663679 -28.97250979 37.85869138 -33.625 32 C-37.42458825 26.47332619 -37.76781852 20.51661357 -37 14 C-35.14192232 6.77936901 -31.07107696 2.17386541 -25 -2 C-16.9546304 -6.0226848 -7.38364072 -4.89508033 0 0 Z M-18.8125 14.125 C-21.30339948 16.81259963 -21.30339948 16.81259963 -21.0625 20.125 C-20.18706667 23.01645649 -20.18706667 23.01645649 -18.3125 24.9375 C-15.10056066 26.41325591 -13.33525198 26.06444212 -10 25 C-7.9214392 23.42304368 -7.9214392 23.42304368 -7 21 C-7.07222995 17.46073241 -7.32805009 15.6951206 -9.8125 13.125 C-13.60255582 11.17582844 -15.48904611 11.61394595 -18.8125 14.125 Z " fill="#000000" transform="translate(416,44)"/>
<path d="M0 0 C5.62190491 3.35174881 9.56334243 8.22193737 11.5625 14.4375 C12.39974732 22.04087387 12.40834412 29.2172498 7.5625 35.4375 C3.20249624 40.05579782 -1.03859132 43.06322837 -7.48828125 43.7734375 C-15.45060136 43.86879463 -21.30139244 43.42555897 -27.18359375 37.75390625 C-33.07231681 31.18734456 -34.06696373 25.96506267 -33.81640625 17.1484375 C-33.14563829 10.57906052 -30.21445121 6.8691814 -25.4375 2.5625 C-18.1456866 -2.60253449 -8.29783989 -3.73242605 0 0 Z M-16.375 15.5 C-18.0515629 18.55726176 -17.80278977 21.0281288 -17.4375 24.4375 C-16.52083333 26.52083333 -16.52083333 26.52083333 -14.4375 27.4375 C-11.0281288 27.80278977 -8.55726176 28.0515629 -5.5 26.375 C-3.8234371 23.31773824 -4.07221023 20.8468712 -4.4375 17.4375 C-5.35416667 15.35416667 -5.35416667 15.35416667 -7.4375 14.4375 C-10.8468712 14.07221023 -13.31773824 13.8234371 -16.375 15.5 Z " fill="#000000" transform="translate(132.4375,268.5625)"/>
<path d="M0 0 C3.125 1.875 3.125 1.875 5 5 C5.98876625 10.02622846 5.7769173 13.70513784 3.125 18.125 C-1.29486216 20.7769173 -4.97377154 20.98876625 -10 20 C-13.125 18.125 -13.125 18.125 -15 15 C-15.98876625 9.97377154 -15.7769173 6.29486216 -13.125 1.875 C-8.70513784 -0.7769173 -5.02622846 -0.98876625 0 0 Z " fill="#000000" transform="translate(291,311)"/>
<path d="M0 0 C3.125 1.875 3.125 1.875 5 5 C5.98876625 10.02622846 5.7769173 13.70513784 3.125 18.125 C-1.29486216 20.7769173 -4.97377154 20.98876625 -10 20 C-13.125 18.125 -13.125 18.125 -15 15 C-15.98876625 9.97377154 -15.7769173 6.29486216 -13.125 1.875 C-8.70513784 -0.7769173 -5.02622846 -0.98876625 0 0 Z " fill="#000000" transform="translate(201,291)"/>
<path d="M0 0 C3.125 1.875 3.125 1.875 5 5 C5.98876625 10.02622846 5.7769173 13.70513784 3.125 18.125 C-1.29486216 20.7769173 -4.97377154 20.98876625 -10 20 C-13.125 18.125 -13.125 18.125 -15 15 C-15.98876625 9.97377154 -15.7769173 6.29486216 -13.125 1.875 C-8.70513784 -0.7769173 -5.02622846 -0.98876625 0 0 Z " fill="#000000" transform="translate(291,211)"/>
</svg>
