<?xml version="1.0" encoding="UTF-8"?>
<svg version="1.1" xmlns="http://www.w3.org/2000/svg" width="512" height="512">
<path d="M0 0 C5.40713221 5.21968496 7.49530183 11.52227585 7.71640015 18.8508606 C7.727641 20.53611615 7.72828288 22.22146455 7.72021484 23.90673828 C7.72564552 25.29609337 7.72564552 25.29609337 7.73118591 26.71351624 C7.73805443 28.71594385 7.74059014 30.71839008 7.73923874 32.72082901 C7.73826863 35.90075428 7.75127494 39.08034599 7.76821899 42.26022339 C7.81433234 51.29845584 7.83907238 60.33665387 7.84570312 69.375 C7.85074519 74.9140132 7.87513301 80.45267842 7.91102982 85.99157333 C7.92076714 88.0908689 7.92319327 90.19021271 7.91785812 92.28952408 C7.87714953 109.10116331 10.03041621 121.26597414 18.71484375 135.9765625 C19.58036865 137.46917603 19.58036865 137.46917603 20.46337891 138.99194336 C22.11073047 141.81172394 23.7801619 144.61645683 25.46484375 147.4140625 C25.88411133 148.11144531 26.30337891 148.80882812 26.73535156 149.52734375 C30.58223427 155.83636649 34.42505657 161.1020029 40.46484375 165.4140625 C41.33109375 166.0946875 42.19734375 166.7753125 43.08984375 167.4765625 C48.27736852 170.45458598 53.85126103 172.38184561 59.46484375 174.4140625 C59.05492187 173.36347656 58.645 172.31289062 58.22265625 171.23046875 C52.52778768 156.46814494 52.52778768 156.46814494 51.46484375 149.4140625 C51.35527344 148.70378906 51.24570312 147.99351562 51.1328125 147.26171875 C48.16846103 124.77217227 53.90399292 102.55878614 67.46484375 84.4140625 C81.62952032 66.2057536 101.44948915 56.29581425 123.99609375 52.87890625 C146.86895807 50.59686589 168.24064 57.61479298 186.21484375 71.7265625 C201.62669894 84.94650939 201.62669894 84.94650939 203.46484375 94.4140625 C201.940856 98.02350717 200.74859477 99.22489515 197.46484375 101.4140625 C193.72494093 101.56072536 191.36417297 101.13250197 188.40625 98.76953125 C185.41279332 95.81002682 182.71565041 92.73078364 180.1015625 89.4296875 C170.12530778 77.42214594 153.50186627 71.2805564 138.40234375 69.6640625 C119.0764786 68.45759231 102.69994224 74.94451044 87.83984375 86.9765625 C74.58200278 99.28402061 67.857047 117.43280553 67.15234375 135.2265625 C67.67157676 152.36125195 74.2065592 167.60743578 85.46484375 180.4140625 C86.04878906 181.105 86.63273437 181.7959375 87.234375 182.5078125 C88.63026616 184.15542174 90.04530341 185.78678455 91.46484375 187.4140625 C97.96596219 184.16350328 101.90743965 180.25700662 105.92578125 174.21875 C109.66876914 168.69338692 109.66876914 168.69338692 114.02734375 167.1640625 C117.46484375 167.4140625 117.46484375 167.4140625 120.40234375 168.8515625 C122.65115062 171.64553467 123.31322384 173.46994167 123.078125 177.0703125 C120.17575255 188.16218172 110.54043834 196.31087364 101.3828125 202.34765625 C99.46484375 203.4140625 99.46484375 203.4140625 97.46484375 203.4140625 C97.46484375 205.7240625 97.46484375 208.0340625 97.46484375 210.4140625 C98.19960938 210.67960938 98.934375 210.94515625 99.69140625 211.21875 C109.44620068 215.42292901 118.16231978 224.77640881 122.46484375 234.4140625 C123.07148878 237.45301071 122.93378828 239.23566069 122.46484375 242.4140625 C120.40234375 244.9765625 120.40234375 244.9765625 117.46484375 246.4140625 C111.54173729 246.31193997 111.54173729 246.31193997 108.9609375 244.16015625 C107.16331757 242.06215074 105.6758926 239.84364903 104.15234375 237.5390625 C101.28972258 233.3730351 98.53109871 230.38937101 94.46484375 227.4140625 C93.8925 228.14625 93.32015625 228.8784375 92.73046875 229.6328125 C90.65438309 232.18138662 88.4800288 234.53480338 86.21484375 236.9140625 C73.80540276 250.67280021 66.70262255 267.43483088 67.28125 286.12109375 C68.43366267 300.51399241 73.13403009 312.64947084 81.46484375 324.4140625 C82.18671875 325.4453125 82.90859375 326.4765625 83.65234375 327.5390625 C94.69005625 340.06541386 111.62998912 347.72376406 128.125 348.80078125 C145.43210759 349.43600106 161.92584185 345.2281667 175.15234375 333.4765625 C175.75433594 332.89003906 176.35632813 332.30351562 176.9765625 331.69921875 C178.46484375 330.4140625 178.46484375 330.4140625 180.46484375 330.4140625 C180.71234375 329.84300781 180.95984375 329.27195312 181.21484375 328.68359375 C182.66050072 326.05882281 184.38158791 324.25550024 186.46484375 322.1015625 C210.86447634 295.24244695 223.4552708 255.62402478 223.66796875 219.70703125 C223.6785582 218.50860344 223.6785582 218.50860344 223.68936157 217.28596497 C223.9658683 193.18469267 223.9658683 193.18469267 220.46484375 169.4140625 C220.26616699 168.51413574 220.06749023 167.61420898 219.86279297 166.68701172 C217.28575956 155.21486975 214.07820653 144.33659459 209.00512695 133.70288086 C206.66791646 128.66086642 205.94729657 124.98672168 206.46484375 119.4140625 C208.24528069 116.93416819 209.6390815 115.82694362 212.33984375 114.4765625 C215.63306656 114.37970301 217.66247912 115.76138592 220.46484375 117.4140625 C235.9447345 137.26870498 240.52986479 172.9939473 240.66796875 197.48828125 C240.67502838 198.32620209 240.68208801 199.16412292 240.68936157 200.0274353 C240.9190065 235.2977149 240.9190065 235.2977149 237.46484375 251.4140625 C237.15885254 252.86304932 237.15885254 252.86304932 236.84667969 254.34130859 C230.2003443 284.89800483 217.765134 311.57810526 197.46484375 335.4140625 C197.00207031 336.0225 196.53929687 336.6309375 196.0625 337.2578125 C184.51712948 352.13695262 165.4043715 361.72063803 147.21484375 365 C122.39556104 367.74046247 100.26564203 362.59005894 80.46484375 347.4140625 C79.80097656 346.93453125 79.13710938 346.455 78.453125 345.9609375 C62.54790447 333.65200226 53.58460671 312.40039659 50.71484375 293.0390625 C50.18649132 285.37795223 50.58982214 277.97252777 51.46484375 270.3515625 C51.56023437 269.48595703 51.655625 268.62035156 51.75390625 267.72851562 C51.98653639 265.62321281 52.22506344 263.51856294 52.46484375 261.4140625 C51.51609375 262.1565625 50.56734375 262.8990625 49.58984375 263.6640625 C49.05617188 264.08171875 48.5225 264.499375 47.97265625 264.9296875 C45.55082547 267.31387324 44.55735082 269.50784818 44.21151066 272.89575481 C44.20987636 273.83166863 44.20824205 274.76758245 44.20655823 275.7318573 C44.19631622 277.34873444 44.19631622 277.34873444 44.18586731 278.99827576 C44.18842026 280.17600052 44.19097321 281.35372528 44.19360352 282.56713867 C44.18837677 283.81147675 44.18315002 285.05581482 44.17776489 286.33786011 C44.16751595 289.04271653 44.16080604 291.74731908 44.1598835 294.45216942 C44.15793976 298.73546313 44.13986807 303.0185957 44.11912537 307.30183411 C44.06997048 317.94442315 44.03910159 328.58705609 44.01782227 339.22973633 C44.00126856 347.49479969 43.97835673 355.75972504 43.93480152 364.02469617 C43.91310921 368.27563173 43.90495951 372.52630461 43.90719426 376.77729166 C43.9051242 380.05625522 43.8837402 383.33510642 43.86547852 386.61401367 C43.87005569 387.78161728 43.87463287 388.94922089 43.87934875 390.15220642 C43.79181271 400.0602264 42.21490254 407.46172553 35.28515625 414.75390625 C30.70151415 418.93426654 25.59705408 420.39164126 19.46484375 420.4140625 C12.51020763 419.85379409 7.35731378 417.36939939 2.46484375 412.4140625 C-2.7149639 404.98309147 -3.25230352 397.98029881 -3.16625977 389.14013672 C-3.17699272 387.20139931 -3.17699272 387.20139931 -3.1879425 385.22349548 C-3.20633473 381.70426457 -3.19359194 378.18579902 -3.17385221 374.6666007 C-3.1573416 370.95986542 -3.16629668 367.25317396 -3.17137146 363.54641724 C-3.17588207 357.31760603 -3.1600955 351.08909607 -3.13208008 344.86035156 C-3.10011725 337.69961483 -3.10001435 330.53942365 -3.11729485 323.37864864 C-3.1332718 316.44812553 -3.12634985 309.51779885 -3.10935783 302.58728409 C-3.10255567 299.65864839 -3.10344855 296.73017343 -3.11090279 293.80154037 C-3.15625824 271.17045623 -2.63037325 249.53463993 13.72265625 231.98828125 C20.84570494 225.55198389 28.95072825 220.76169595 37.46484375 216.4140625 C36.95735596 216.19379395 36.44986816 215.97352539 35.92700195 215.74658203 C24.64212623 210.78801809 14.73902298 205.56961703 5.46484375 197.4140625 C4.65917969 196.71925781 3.85351562 196.02445313 3.0234375 195.30859375 C-3.92522198 188.86748853 -12.54048046 178.88748059 -14.53515625 169.4140625 C-15.19515625 169.4140625 -15.85515625 169.4140625 -16.53515625 169.4140625 C-16.8909375 170.69023437 -16.8909375 170.69023437 -17.25390625 171.9921875 C-18.68423389 175.81220887 -20.65156049 178.8953263 -23.03515625 182.1640625 C-23.47947998 182.77531982 -23.92380371 183.38657715 -24.3815918 184.01635742 C-36.05755888 199.72917324 -50.95223884 208.6860018 -68.53515625 216.4140625 C-66.92447266 217.28417969 -66.92447266 217.28417969 -65.28125 218.171875 C-49.35287158 226.87537576 -37.93419592 236.6432164 -31.53515625 254.4140625 C-28.94520896 263.37898978 -28.09252117 271.82412665 -28.11523438 281.1237793 C-28.10676483 282.42634674 -28.09829529 283.72891418 -28.08956909 285.07095337 C-28.06759656 288.60179274 -28.06440959 292.13239718 -28.0663166 295.66329551 C-28.06643731 298.62553705 -28.05783381 301.58773055 -28.04953909 304.54995853 C-28.0303968 311.54123302 -28.02738931 318.53238814 -28.03417969 325.52368164 C-28.04083134 332.71019814 -28.01789029 339.89620283 -27.98086596 347.08261555 C-27.95009575 353.28258783 -27.93881629 359.48239593 -27.94270277 365.68244296 C-27.94476073 369.3726732 -27.93943822 373.06250367 -27.91481018 376.75266075 C-27.88825345 380.86629228 -27.90232635 384.97884957 -27.91992188 389.0925293 C-27.90665863 390.29850266 -27.89339539 391.50447601 -27.87973022 392.74699402 C-27.96250609 401.09835741 -29.45834638 408.14546089 -35.38626862 414.35225964 C-40.356636 418.72837336 -46.01425331 420.12847551 -52.53515625 420.4140625 C-60.57139655 419.72247555 -65.98079306 415.29568273 -71.23828125 409.5859375 C-75.3639013 402.67676657 -74.81793851 394.52306473 -74.79052734 386.75927734 C-74.79595802 384.88466576 -74.79595802 384.88466576 -74.80149841 382.97218323 C-74.80837311 380.26847969 -74.81178984 377.56502602 -74.80955124 374.86133957 C-74.80670326 370.58275423 -74.82112355 366.30433198 -74.83853149 362.02578735 C-74.88542247 349.86454682 -74.90950619 337.70331922 -74.91601562 325.54199219 C-74.91976863 318.81406666 -74.93781093 312.0863276 -74.97110999 305.358482 C-74.99128888 301.10830155 -74.99371272 296.85860308 -74.98282981 292.60839438 C-74.97960549 289.34220791 -75.00232273 286.07618212 -75.02099609 282.81005859 C-75.01282364 281.63795334 -75.00465118 280.46584808 -74.99623108 279.25822449 C-75.05985816 273.01175437 -75.28550317 269.13523633 -79.53515625 264.4140625 C-81.64091268 262.58105341 -81.64091268 262.58105341 -83.53515625 261.4140625 C-83.31859375 263.31478516 -83.31859375 263.31478516 -83.09765625 265.25390625 C-82.90990039 266.95309675 -82.72241486 268.65231713 -82.53515625 270.3515625 C-82.39207031 271.59776367 -82.39207031 271.59776367 -82.24609375 272.86914062 C-79.66763464 296.53571174 -86.07667546 317.98344292 -100.59765625 336.9765625 C-113.89186971 352.59163017 -133.09586682 363.15008324 -153.53515625 365.4140625 C-172.73321597 366.55867304 -189.71171804 364.1337701 -206.53515625 354.4140625 C-209.01554532 350.6934789 -208.99852828 348.81609679 -208.53515625 344.4140625 C-207.03515625 341.9765625 -207.03515625 341.9765625 -204.53515625 340.4140625 C-198.11698445 339.40066695 -194.22549835 341.33889069 -188.49609375 344.1015625 C-173.32756718 350.82534209 -155.54960483 350.09926399 -140.19140625 344.5703125 C-133.11531157 341.68007664 -125.73264884 337.63995201 -120.3359375 332.1953125 C-118.53515625 330.4140625 -118.53515625 330.4140625 -116.53515625 330.4140625 C-116.14263672 329.54974609 -116.14263672 329.54974609 -115.7421875 328.66796875 C-114.46017555 326.27405 -112.97118913 324.42576447 -111.22265625 322.3515625 C-103.63557741 312.72969537 -99.50000285 300.57112968 -98.53515625 288.4140625 C-98.48230469 287.77597656 -98.42945313 287.13789063 -98.375 286.48046875 C-97.37133925 263.39627139 -109.20585008 246.27032101 -123.53515625 229.4140625 C-124.19515625 228.7540625 -124.85515625 228.0940625 -125.53515625 227.4140625 C-131.17072735 231.73371345 -134.82719089 235.96611727 -138.11328125 242.27734375 C-139.73200984 244.70988369 -140.78888732 245.48294656 -143.53515625 246.4140625 C-146.88721136 246.23763855 -149.50906926 245.97675537 -152.47265625 244.3515625 C-154.31838912 240.98581432 -154.36581044 238.05340353 -153.53515625 234.4140625 C-148.46330969 223.98610659 -140.63179601 216.02787646 -130.53515625 210.4140625 C-129.87515625 210.4140625 -129.21515625 210.4140625 -128.53515625 210.4140625 C-128.53515625 208.1040625 -128.53515625 205.7940625 -128.53515625 203.4140625 C-129.26992187 203.14851562 -130.0046875 202.88296875 -130.76171875 202.609375 C-140.51651318 198.40519599 -149.23263228 189.05171619 -153.53515625 179.4140625 C-154.14180128 176.37511429 -154.00410078 174.59246431 -153.53515625 171.4140625 C-151.47265625 168.8515625 -151.47265625 168.8515625 -148.53515625 167.4140625 C-145.16015625 167.1015625 -145.16015625 167.1015625 -141.53515625 168.4140625 C-138.85005208 171.16936547 -136.73039067 174.26349458 -134.53515625 177.4140625 C-133.53618703 178.72271218 -132.51697017 180.0163049 -131.47265625 181.2890625 C-131.04855469 181.82273438 -130.62445313 182.35640625 -130.1875 182.90625 C-127.90159669 184.99220432 -125.32719063 186.12066516 -122.53515625 187.4140625 C-108.27550626 172.49424353 -98.96532428 156.17537888 -98.22265625 135.1640625 C-98.72817744 116.40656583 -106.18732558 99.26592155 -119.76953125 86.27734375 C-133.47959552 74.5162592 -150.99881834 68.38036736 -169.05078125 69.6640625 C-190.58147484 72.31983087 -206.89013039 82.40630484 -220.25 99.34765625 C-235.64711924 120.00874788 -246.5198524 143.03569626 -251.53515625 168.4140625 C-251.6846875 169.14173828 -251.83421875 169.86941406 -251.98828125 170.61914062 C-256.85058636 195.41270507 -257.2495405 224.73984625 -251.53515625 249.4140625 C-251.36886719 250.17380371 -251.20257813 250.93354492 -251.03125 251.71630859 C-246.00094731 274.28280539 -237.49463669 297.59293071 -222.63330078 315.59936523 C-219.14495551 320.05870037 -219.02700937 322.97860373 -219.53515625 328.4140625 C-221.1254467 331.15289605 -222.36980922 331.36373949 -225.41015625 332.2890625 C-229.25469181 332.44284392 -230.43115466 331.62648917 -233.53515625 329.4140625 C-251.77507978 309.34348971 -262.16087782 280.79911034 -267.78515625 254.7265625 C-267.93629883 254.02797119 -268.08744141 253.32937988 -268.24316406 252.60961914 C-271.12044593 238.34499091 -271.91181588 224.29531545 -271.84765625 209.7890625 C-271.8455011 208.90943848 -271.84334595 208.02981445 -271.84112549 207.12353516 C-271.66899728 163.27362523 -259.74785833 118.09144411 -229.83447266 84.87792969 C-228.63339104 83.52473815 -227.47840923 82.13100328 -226.328125 80.734375 C-212.72015848 64.52599929 -192.58668625 54.72595089 -171.59863281 52.68530273 C-148.70714799 51.01229158 -126.61041636 57.99149168 -109.09765625 73.03515625 C-95.51208493 85.64737109 -85.28407287 101.81425006 -82.53515625 120.4140625 C-82.42558594 121.13722656 -82.31601563 121.86039062 -82.203125 122.60546875 C-79.88252498 140.3967356 -82.87630688 158.64258686 -91.53515625 174.4140625 C-70.90279419 167.18172206 -62.1870794 157.04321287 -51.34765625 138.4140625 C-50.44370117 136.89039063 -50.44370117 136.89039063 -49.52148438 135.3359375 C-43.00982103 124.18533945 -39.38559401 114.89874584 -39.39331055 101.99316406 C-39.38983612 101.05104065 -39.38636169 100.10891724 -39.38278198 99.13824463 C-39.37544145 97.09593544 -39.37008701 95.05361835 -39.36649132 93.01129913 C-39.35930664 89.77388599 -39.34362473 86.53662272 -39.32514954 83.29925537 C-39.27277594 74.09568337 -39.22471973 64.89219438 -39.20922852 55.68847656 C-39.19912505 50.05450863 -39.16974153 44.42091968 -39.12790871 38.78710175 C-39.11562901 36.64543275 -39.11047188 34.50371017 -39.11270714 32.36200714 C-39.1150705 29.35844228 -39.09281498 26.3559575 -39.06518555 23.35253906 C-39.07178696 22.47637939 -39.07838837 21.60021973 -39.08518982 20.69750977 C-38.97297001 13.22918187 -36.97059283 7.21481457 -32.03515625 1.5390625 C-22.51279757 -6.55494237 -10.27738614 -8.27027309 0 0 Z M-21.53515625 14.4140625 C-23.21991607 17.78358213 -22.67923823 21.60109341 -22.67700195 25.30737305 C-22.68221359 26.69081406 -22.68221359 26.69081406 -22.68753052 28.10220337 C-22.69489729 30.11181215 -22.70023775 32.12142912 -22.70382118 34.1310482 C-22.71098887 37.32366368 -22.72666267 40.51612564 -22.74516296 43.70869446 C-22.79758326 52.78892775 -22.84550092 61.86908192 -22.86108398 70.94946289 C-22.87123798 76.502194 -22.90076002 82.05454582 -22.94240379 87.60712624 C-22.95462557 89.71313401 -22.95985139 91.81919562 -22.95760536 93.92523766 C-22.9440994 110.74053984 -24.55119564 124.52733197 -33.16015625 139.3515625 C-33.68577148 140.28250732 -34.21138672 141.21345215 -34.75292969 142.17260742 C-36.3244244 144.93362973 -37.92338853 147.67639033 -39.53515625 150.4140625 C-39.99825195 151.20651367 -40.46134766 151.99896484 -40.93847656 152.81542969 C-54.09024667 175.14917361 -69.04102214 184.27043544 -93.18994141 192.29638672 C-95.81117285 193.17268021 -98.42282994 194.07413617 -101.03515625 194.9765625 C-101.84235107 195.23324707 -102.6495459 195.48993164 -103.48120117 195.75439453 C-107.17070726 197.03456476 -109.11426516 197.87742637 -111.56640625 201.00390625 C-112.8543437 205.53765382 -112.78482725 209.73504307 -112.53515625 214.4140625 C-107.84040364 212.84255991 -103.14910768 211.26122356 -98.46044922 209.67163086 C-96.87309475 209.13489604 -95.2849069 208.60061811 -93.69580078 208.0690918 C-85.28180308 205.25288041 -76.96256025 202.31568532 -68.81640625 198.7890625 C-68.18343628 198.51738754 -67.55046631 198.24571259 -66.89831543 197.96580505 C-47.2666808 189.23905172 -36.44493415 174.0004807 -26.35424805 155.83862305 C-25.903479 155.03851807 -25.45270996 154.23841309 -24.98828125 153.4140625 C-24.58770508 152.6921875 -24.18712891 151.9703125 -23.77441406 151.2265625 C-22.53515625 149.4140625 -22.53515625 149.4140625 -19.53515625 147.4140625 C-13.94499232 146.78291496 -13.94499232 146.78291496 -11.53515625 147.4140625 C-6.85236843 151.19745774 -4.49506769 155.80306413 -1.78515625 161.0390625 C11.21641616 185.19351588 30.27547425 196.77623822 55.46484375 205.4140625 C57.79718811 206.22566325 60.12920086 207.0382174 62.4609375 207.8515625 C68.79019302 210.05481146 75.12548163 212.24007917 81.46484375 214.4140625 C81.54705721 212.87332134 81.6045767 211.33125596 81.65234375 209.7890625 C81.68714844 208.93054688 81.72195313 208.07203125 81.7578125 207.1875 C81.37251307 203.53999871 80.55485699 201.44780247 78.46484375 198.4140625 C75.79946136 197.05358924 73.53343113 196.1175489 70.71875 195.23046875 C69.56922096 194.83528297 69.56922096 194.83528297 68.39646912 194.43211365 C65.94664873 193.59248372 63.48845045 192.78245004 61.02734375 191.9765625 C39.0344271 184.68078247 23.44572286 176.09080995 11.46484375 155.4140625 C10.90651855 154.46241211 10.34819336 153.51076172 9.77294922 152.53027344 C7.88180359 149.2930329 6.01337392 146.04370131 4.15234375 142.7890625 C3.55325195 141.75265625 2.95416016 140.71625 2.33691406 139.6484375 C-4.15592423 128.10236603 -7.68492367 117.22427216 -7.67700195 104.02148438 C-7.68047638 103.08268936 -7.68395081 102.14389435 -7.68753052 101.176651 C-7.69486969 99.142518 -7.70022485 97.10837708 -7.70382118 95.07423401 C-7.71100014 91.85472141 -7.72667591 88.63536001 -7.74516296 85.41589355 C-7.79757706 76.26377381 -7.84563848 67.11173942 -7.86108398 57.95947266 C-7.87115642 52.35793997 -7.90045688 46.75679168 -7.94240379 41.15541077 C-7.95472348 39.02160039 -7.95983329 36.88773577 -7.95760536 34.75389099 C-7.95525646 31.77105527 -7.97738609 28.78932684 -8.00512695 25.80664062 C-7.99852554 24.92545059 -7.99192413 24.04426056 -7.98512268 23.1363678 C-8.04726636 19.06999755 -8.23488512 16.91227291 -10.37687683 13.35827637 C-12.4415982 11.14592817 -12.4415982 11.14592817 -15.59765625 10.9140625 C-18.75801242 11.45199547 -19.67956265 11.87482915 -21.53515625 14.4140625 Z M-103.53515625 227.4140625 C-103.13683594 227.93355469 -102.73851562 228.45304688 -102.328125 228.98828125 C-101.79832031 229.68566406 -101.26851562 230.38304687 -100.72265625 231.1015625 C-99.93955078 232.12830078 -99.93955078 232.12830078 -99.140625 233.17578125 C-97.53515625 235.4140625 -97.53515625 235.4140625 -96.41796875 237.9609375 C-93.50832352 241.75192755 -89.66957012 242.5501939 -85.22265625 243.9765625 C-79.3771615 245.90418931 -74.54855883 247.82655959 -69.53515625 251.4140625 C-68.54515625 251.7440625 -67.55515625 252.0740625 -66.53515625 252.4140625 C-65.4765625 254.22265625 -65.4765625 254.22265625 -64.53515625 256.4140625 C-64.19355469 257.08566406 -63.85195312 257.75726563 -63.5 258.44921875 C-63.16097656 259.11824219 -62.82195312 259.78726563 -62.47265625 260.4765625 C-62.13105469 261.14816406 -61.78945312 261.81976563 -61.4375 262.51171875 C-59.7621771 266.04367656 -59.40751761 268.8164681 -59.39712524 272.67648315 C-59.39167191 273.76722137 -59.38621857 274.85795959 -59.38059998 275.98175049 C-59.37955765 277.17870544 -59.37851532 278.3756604 -59.37744141 279.60888672 C-59.36964242 281.54357622 -59.36183937 283.47826571 -59.3538835 285.41295457 C-59.34616969 287.49326712 -59.34078715 289.57357527 -59.33592606 291.65389633 C-59.32524171 295.99058831 -59.30499596 300.3272024 -59.2828064 304.66384888 C-59.22089592 316.99575231 -59.16686562 329.327651 -59.13378906 341.65966797 C-59.11544163 348.47030315 -59.08650548 355.2808077 -59.04578435 362.09134686 C-59.02471861 365.6948105 -59.0092577 369.29810957 -59.00697708 372.90163803 C-59.00442997 376.92142502 -58.97896547 380.94075415 -58.95166016 384.96044922 C-58.95466629 386.15335571 -58.95767242 387.34626221 -58.96076965 388.57531738 C-58.94967667 389.67169525 -58.93858368 390.76807312 -58.92715454 391.89767456 C-58.92384439 392.84783384 -58.92053425 393.79799313 -58.91712379 394.77694511 C-58.41711699 398.22900971 -57.01730362 400.93191513 -54.53515625 403.4140625 C-51.01178772 403.80554789 -49.21907467 403.94546063 -46.36768341 401.72995663 C-44.14446951 398.92032404 -44.03287822 397.59348056 -44.02722168 394.04725647 C-44.01594238 392.95829071 -44.00466309 391.86932495 -43.99304199 390.74736023 C-44.00113892 389.55721817 -44.00923584 388.36707611 -44.01757812 387.14086914 C-44.01056885 385.8834491 -44.00355957 384.62602905 -43.99633789 383.33050537 C-43.97809855 379.88147551 -43.98517856 376.43292426 -43.99785423 372.983886 C-44.00799879 369.36379177 -43.99858268 365.74373786 -43.99230957 362.12364197 C-43.98502899 356.0347461 -43.99462273 349.94604414 -44.01367188 343.85717773 C-44.03535367 336.84647788 -44.02845482 329.83624497 -44.00636625 322.82555681 C-43.98811828 316.7896139 -43.98570208 310.75381036 -43.99612093 304.71784872 C-44.00231598 301.12080765 -44.00330475 297.52398461 -43.98997498 293.92695808 C-43.97610192 289.9016348 -43.99541778 285.87709296 -44.01757812 281.85180664 C-44.0094812 280.67988266 -44.00138428 279.50795868 -43.99304199 278.30052185 C-44.12903187 264.86532917 -47.97423512 253.86159459 -56.84765625 243.7890625 C-57.73453125 243.0053125 -58.62140625 242.2215625 -59.53515625 241.4140625 C-60.10975586 240.88949463 -60.68435547 240.36492676 -61.27636719 239.82446289 C-67.72078512 234.33752321 -74.45730976 231.94513467 -82.47265625 229.4765625 C-83.70306641 229.07888672 -84.93347656 228.68121094 -86.20117188 228.27148438 C-94.86803742 225.48564045 -94.86803742 225.48564045 -103.53515625 227.4140625 Z M51.21484375 229.2265625 C50.00860352 229.64236572 48.80236328 230.05816895 47.55957031 230.48657227 C33.62568974 235.50500263 23.70605144 242.38501811 17.19140625 256.09375 C14.69157586 262.06852193 13.34673271 267.45922 13.31767273 273.96168518 C13.31051743 275.06503204 13.30336212 276.16837891 13.29598999 277.30516052 C13.29330109 278.50584671 13.29061218 279.7065329 13.2878418 280.94360352 C13.2812706 282.21562622 13.2746994 283.48764893 13.26792908 284.79821777 C13.24696955 289.00478877 13.23653998 293.21135984 13.2265625 297.41796875 C13.22251306 298.86815853 13.21839609 300.31834812 13.21421242 301.76853752 C13.1951851 308.57727665 13.18094429 315.38600505 13.17260045 322.19476563 C13.16281193 330.05182251 13.13644043 337.90859889 13.09609956 345.76555687 C13.06596598 351.84295472 13.05113455 357.92027195 13.04781944 363.99774307 C13.04546742 367.62638985 13.03648659 371.25473608 13.01135826 374.88330269 C12.98380322 378.92702151 12.98790008 382.97010938 12.99487305 387.01391602 C12.98206299 388.21662643 12.96925293 389.41933685 12.95605469 390.65849304 C12.9629985 391.75902008 12.96994232 392.85954712 12.97709656 393.99342346 C12.9747082 394.94928124 12.97231985 395.90513903 12.96985912 396.8899622 C13.6151151 400.18034886 14.85313567 401.37326254 17.46484375 403.4140625 C20.73354836 403.8810203 22.56066134 404.06881528 25.27734375 402.1015625 C27.54660682 398.87682024 27.5910726 395.988386 27.59614563 392.17855835 C27.60015381 391.09360077 27.60416199 390.00864319 27.60829163 388.89080811 C27.60776291 387.70013733 27.60723419 386.50946655 27.60668945 385.28271484 C27.61016388 384.02876923 27.61363831 382.77482361 27.61721802 381.48287964 C27.62458052 378.75406769 27.63025124 376.02530456 27.63350868 373.29648972 C27.63942572 368.97550217 27.65597432 364.65459671 27.67485046 360.33364868 C27.68118798 358.85311704 27.6875136 357.37258535 27.69382763 355.8920536 C27.69699344 355.15054031 27.70015925 354.40902701 27.703421 353.64504361 C27.74545199 343.58678207 27.77844992 333.52855832 27.79077148 323.47021484 C27.79916951 316.68441909 27.82172646 309.89882632 27.86012715 303.11313212 C27.87983364 299.52514198 27.89231065 295.93745489 27.88729286 292.3494072 C27.88175423 288.3399166 27.90712863 284.33117633 27.93481445 280.32177734 C27.92821304 279.14325195 27.92161163 277.96472656 27.91481018 276.75048828 C28.0151214 267.88509967 29.89422043 261.37734165 35.46484375 254.4140625 C35.46484375 253.7540625 35.46484375 253.0940625 35.46484375 252.4140625 C36.03460938 252.13175781 36.604375 251.84945313 37.19140625 251.55859375 C38.6530815 250.82273319 40.10707486 250.07129871 41.55078125 249.30078125 C46.49453327 246.71079512 51.23124339 244.87019458 56.58984375 243.2890625 C64.88824414 240.47466499 68.64995931 235.04383138 72.46484375 227.4140625 C64.62721712 224.35429939 58.93377538 226.51942139 51.21484375 229.2265625 Z " fill="#000000" transform="translate(271.53515625,48.5859375)"/>
</svg>
