<?xml version="1.0" encoding="UTF-8"?>
<svg version="1.1" xmlns="http://www.w3.org/2000/svg" width="512" height="512">
<path d="M0 0 C2.0473348 1.22552651 4.07381407 2.48655595 6.078125 3.78125 C7.93382141 4.83980826 9.7931372 5.89205013 11.65625 6.9375 C13.54909197 8.04831419 15.43964631 9.16303395 17.328125 10.28125 C19.44005844 11.52221324 21.55203893 12.76309641 23.6640625 14.00390625 C24.72979492 14.63184082 25.79552734 15.25977539 26.89355469 15.90673828 C31.90582883 18.85707874 36.92921807 21.78827644 41.953125 24.71875 C42.9225 25.28505127 43.891875 25.85135254 44.890625 26.43481445 C50.32491732 29.60615549 55.76964946 32.75843069 61.2265625 35.890625 C61.82141449 36.23239273 62.41626648 36.57416046 63.02914429 36.92628479 C65.91845383 38.58622841 68.80918003 40.24352424 71.70263672 41.89624023 C72.7392041 42.49122314 73.77577148 43.08620605 74.84375 43.69921875 C75.75930664 44.22281982 76.67486328 44.7464209 77.61816406 45.28588867 C78.42995117 45.77935791 79.24173828 46.27282715 80.078125 46.78125 C81.13912415 47.2993927 81.13912415 47.2993927 82.22155762 47.82800293 C84.078125 49.78125 84.078125 49.78125 84.43560791 53.6164093 C84.39169586 55.25446195 84.32581572 56.89200909 84.24316406 58.52856445 C84.18467175 60.3836466 84.12635062 62.23873415 84.06817627 64.09382629 C84.03006081 65.07891489 83.99194534 66.06400349 83.95267487 67.07894325 C83.76682277 72.30957579 83.70087412 77.54235795 83.61328125 82.77539062 C83.49418359 89.43015437 83.34085159 96.07866397 83.06005859 102.72875977 C80.70394306 125.94884567 80.70394306 125.94884567 87.39086914 147.12982178 C92.9511887 152.12765049 99.09473472 154.71426818 106.19616699 156.82455444 C110.32500524 158.1951647 113.51238455 160.31691636 117.078125 162.78125 C115.31383301 167.75334562 112.6842084 172.21563061 110.078125 176.78125 C106.43665666 176.09786741 103.63663933 174.55096409 100.4296875 172.7265625 C99.34171875 172.11167969 98.25375 171.49679688 97.1328125 170.86328125 C96.00101563 170.21746094 94.86921875 169.57164062 93.703125 168.90625 C91.46683913 167.63679873 89.22988102 166.36853082 86.9921875 165.1015625 C86.0017041 164.53711426 85.0112207 163.97266602 83.99072266 163.39111328 C82.54898682 162.59423096 82.54898682 162.59423096 81.078125 161.78125 C80.06766113 161.17152344 79.05719727 160.56179687 78.01611328 159.93359375 C75.1849871 158.48024238 75.1849871 158.48024238 72.60644531 159.48779297 C71.79788086 159.99455566 70.98931641 160.50131836 70.15625 161.0234375 C69.22651367 161.58756348 68.29677734 162.15168945 67.33886719 162.73291016 C66.34532227 163.3676123 65.35177734 164.00231445 64.328125 164.65625 C62.17269486 165.97529899 60.01641501 167.29296028 57.859375 168.609375 C56.74433594 169.29966797 55.62929687 169.98996094 54.48046875 170.70117188 C48.99697541 174.05359461 43.41016091 177.22166948 37.828125 180.40625 C28.82399445 185.57466405 19.8867162 190.84055753 11.04199219 196.27783203 C10.28047852 196.7417334 9.51896484 197.20563477 8.734375 197.68359375 C7.74147461 198.29448853 7.74147461 198.29448853 6.72851562 198.91772461 C5.078125 199.78125 5.078125 199.78125 3.078125 199.78125 C3.078125 228.16125 3.078125 256.54125 3.078125 285.78125 C4.728125 286.44125 6.378125 287.10125 8.078125 287.78125 C9.65185778 288.6018046 11.21013955 289.45249431 12.75390625 290.328125 C13.65206055 290.83617676 14.55021484 291.34422852 15.47558594 291.86767578 C16.43754883 292.41665527 17.39951172 292.96563477 18.390625 293.53125 C19.4002832 294.10472168 20.40994141 294.67819336 21.45019531 295.26904297 C28.76892657 299.43681074 36.05439411 303.66054547 43.328125 307.90625 C44.81638794 308.77213745 44.81638794 308.77213745 46.3347168 309.65551758 C51.11713782 312.44319925 55.87775331 315.25851281 60.6015625 318.14453125 C61.46491211 318.66450684 62.32826172 319.18448242 63.21777344 319.72021484 C64.82580841 320.68977463 66.42607569 321.67238706 68.01660156 322.67041016 C71.15216391 324.54679295 73.30579478 325.74501467 76.9921875 325.91796875 C81.6173986 324.21425175 85.64139318 321.73625308 89.828125 319.15625 C91.79857819 317.96595513 93.7699725 316.77721717 95.7421875 315.58984375 C96.77504883 314.96577637 97.80791016 314.34170898 98.87207031 313.69873047 C105.25874316 309.87898264 111.72982551 306.20406028 118.19042969 302.51123047 C120.26981794 301.31758228 122.32277923 300.07708398 124.3515625 298.79931641 C127.23637832 297.08379284 130.06438967 296.13216116 133.2734375 295.16552734 C139.52676937 292.93974693 144.45411687 290.53302521 148.078125 284.78125 C152.04635525 272.26758221 150.34133591 257.4745912 149.91497803 244.55450439 C149.76997646 239.50716607 149.73964583 234.45922341 149.69921875 229.41015625 C149.60342448 219.52997872 149.38141032 209.65708611 149.078125 199.78125 C147.90685059 199.31971024 147.90685059 199.31971024 146.71191406 198.84884644 C142.6496196 197.20221074 138.90331019 195.03618266 135.078125 192.90625 C134.2840625 192.47183594 133.49 192.03742188 132.671875 191.58984375 C128.50245869 189.2758177 124.69949274 186.92074219 121.078125 183.78125 C122.17112001 181.79589194 123.27788736 179.81811057 124.390625 177.84375 C125.00550781 176.74160156 125.62039062 175.63945312 126.25390625 174.50390625 C128.078125 171.78125 128.078125 171.78125 131.078125 170.78125 C133.89379883 172.07299805 133.89379883 172.07299805 137.28515625 174.04296875 C137.88817062 174.39003372 138.491185 174.73709869 139.11247253 175.09468079 C141.04417593 176.20992364 142.9671931 177.33931387 144.890625 178.46875 C146.17461613 179.21117624 147.45911618 179.95272307 148.74414062 180.69335938 C152.20461033 182.69723268 155.65677106 184.71091763 159.078125 186.78125 C160.12015579 187.29200577 161.16218658 187.80276154 162.23579407 188.32899475 C165.27446677 190.95064623 165.49659767 191.16280211 165.7996521 194.86883545 C165.81702957 196.56453956 165.80112228 198.26077789 165.75927734 199.95605469 C165.7601535 200.883228 165.76102966 201.81040131 165.76193237 202.76567078 C165.75775355 205.82901387 165.71108704 208.89016472 165.6640625 211.953125 C165.65287143 214.07731937 165.64433082 216.20152924 165.63833618 218.32574463 C165.61543112 223.91569809 165.55649241 229.50471558 165.4901123 235.09429932 C165.42872654 240.79841449 165.40132903 246.50268096 165.37109375 252.20703125 C165.30675163 263.39884865 165.20435104 274.58997149 165.078125 285.78125 C166.45605225 286.21775879 166.45605225 286.21775879 167.86181641 286.66308594 C171.69988648 287.99740816 175.00023462 289.93162624 178.453125 292.03125 C179.96964973 292.93817314 181.48660174 293.84438205 183.00390625 294.75 C183.81939941 295.23855469 184.63489258 295.72710937 185.47509766 296.23046875 C191.18236615 299.63063471 196.93115943 302.96074412 202.67871094 306.29223633 C208.06428649 309.41875315 213.41955635 312.58507718 218.73828125 315.82421875 C219.82101318 316.47616211 220.90374512 317.12810547 222.01928711 317.79980469 C224.09993677 319.05384244 226.17279639 320.32092179 228.23657227 321.60253906 C229.17686279 322.16553711 230.11715332 322.72853516 231.0859375 323.30859375 C231.90723145 323.81124756 232.72852539 324.31390137 233.57470703 324.83178711 C236.85567909 326.07615032 238.71689818 325.70031406 242.078125 324.78125 C244.59093161 323.65249816 244.59093161 323.65249816 247 322.1484375 C247.92941406 321.59736328 248.85882813 321.04628906 249.81640625 320.47851562 C250.81027344 319.87716797 251.80414063 319.27582031 252.828125 318.65625 C254.98910628 317.37159303 257.15058164 316.08776686 259.3125 314.8046875 C260.98602539 313.80646973 260.98602539 313.80646973 262.69335938 312.78808594 C268.12524309 309.56750861 273.60188885 306.42561888 279.078125 303.28125 C285.70044973 299.47652147 292.30993067 295.65410277 298.87890625 291.7578125 C299.97267578 291.11134766 301.06644531 290.46488281 302.19335938 289.79882812 C304.27507148 288.56658681 306.35339111 287.32859033 308.42773438 286.08398438 C309.36037109 285.53291016 310.29300781 284.98183594 311.25390625 284.4140625 C312.06770752 283.92824707 312.88150879 283.44243164 313.7199707 282.94189453 C316.30121751 281.67144756 318.2004517 280.97213168 321.078125 280.78125 C323.64257812 281.82592773 323.64257812 281.82592773 326.359375 283.46484375 C327.86177734 284.35695557 327.86177734 284.35695557 329.39453125 285.26708984 C330.97041016 286.23316162 330.97041016 286.23316162 332.578125 287.21875 C333.64933594 287.86021973 334.72054688 288.50168945 335.82421875 289.16259766 C338.91828234 291.0204422 341.99986078 292.8973731 345.078125 294.78125 C346.56762808 295.68633 348.05719935 296.5912978 349.546875 297.49609375 C352.40295119 299.23834527 355.24606056 301.00014697 358.078125 302.78125 C356.7708175 306.22056834 355.26776166 309.39425905 353.453125 312.59375 C353.00710938 313.38394531 352.56109375 314.17414063 352.1015625 314.98828125 C351.76382812 315.57996094 351.42609375 316.17164063 351.078125 316.78125 C346.78109247 315.49162487 343.22976492 313.84445692 339.41796875 311.48828125 C338.37705078 310.85857422 337.33613281 310.22886719 336.26367188 309.58007812 C334.09023781 308.25092452 331.92097687 306.91492387 329.75585938 305.57226562 C328.71623047 304.94642578 327.67660156 304.32058594 326.60546875 303.67578125 C325.66437256 303.09675049 324.72327637 302.51771973 323.75366211 301.92114258 C320.56936602 300.56449704 319.31826264 300.67684867 316.078125 301.78125 C313.73419039 302.850181 313.73419039 302.850181 311.40234375 304.23046875 C310.50443115 304.74158203 309.60651855 305.25269531 308.68139648 305.77929688 C307.71919189 306.33681641 306.7569873 306.89433594 305.765625 307.46875 C304.7537915 308.04818359 303.74195801 308.62761719 302.69946289 309.22460938 C299.48728927 311.06819951 296.28188781 312.92308702 293.078125 314.78125 C292.06556641 315.36729004 291.05300781 315.95333008 290.00976562 316.55712891 C281.30636005 321.53209977 281.30636005 321.53209977 272.765625 326.7746582 C269.79216271 328.56065163 266.80118065 329.54453222 263.5 330.59057617 C256.76812043 333.07151012 251.20128054 335.71244893 247.078125 341.78125 C242.78934379 354.18933779 244.61964517 369.19386937 245.10394287 382.07666016 C245.26964018 387.11712126 245.30890759 392.15847363 245.359375 397.20117188 C245.47646833 407.06605222 245.73243228 416.92191524 246.078125 426.78125 C246.85572678 427.08653625 247.63332855 427.39182251 248.43449402 427.70635986 C251.00979265 428.75346633 253.33738969 429.95746708 255.75390625 431.328125 C256.65189941 431.83609619 257.54989258 432.34406738 258.47509766 432.86743164 C259.43722168 433.4164917 260.3993457 433.96555176 261.390625 434.53125 C262.4017334 435.10544678 263.4128418 435.67964355 264.45458984 436.27124023 C270.72614283 439.84220545 276.97462466 443.45157953 283.20507812 447.09375 C285.20192013 448.25933335 287.20192907 449.41950823 289.20507812 450.57421875 C294.1780268 453.44935716 299.06472958 456.39616821 303.87109375 459.54296875 C304.80099121 460.13005615 305.73088867 460.71714355 306.68896484 461.32202148 C308.43859638 462.42894091 310.16648735 463.57132305 311.86572266 464.75415039 C314.34485762 466.29074774 316.20276452 467.26992125 319.078125 467.78125 C323.22229629 466.52238017 326.50623946 464.18296832 330.078125 461.78125 C332.18767069 460.56765228 334.30658321 459.37022085 336.43359375 458.1875 C338.71175077 456.88681063 340.98913481 455.58484674 343.265625 454.28125 C343.86541168 453.93830902 344.46519836 453.59536804 345.0831604 453.24203491 C354.81254834 447.67850921 364.50818364 442.05917426 374.17456055 436.38671875 C375.0850415 435.85304688 375.99552246 435.319375 376.93359375 434.76953125 C377.71371826 434.31102783 378.49384277 433.85252441 379.29760742 433.38012695 C383.19944853 431.13645697 387.14359961 428.96709744 391.078125 426.78125 C391.408125 398.40125 391.738125 370.02125 392.078125 340.78125 C390.428125 340.12125 388.778125 339.46125 387.078125 338.78125 C385.65990823 338.05934947 384.25454022 337.31164107 382.86328125 336.5390625 C382.09435547 336.11238281 381.32542969 335.68570312 380.53320312 335.24609375 C379.34887695 334.58287109 379.34887695 334.58287109 378.140625 333.90625 C377.35494141 333.47183594 376.56925781 333.03742188 375.75976562 332.58984375 C371.39638493 330.15803493 367.18943926 327.61891474 363.078125 324.78125 C363.63801803 320.79112629 364.83482268 318.2557448 367.140625 314.96875 C367.68847656 314.17855469 368.23632812 313.38835937 368.80078125 312.57421875 C369.43306641 311.68669922 369.43306641 311.68669922 370.078125 310.78125 C374.45800059 312.10386146 378.18823444 313.82057877 382.140625 316.1171875 C383.26726562 316.76945312 384.39390625 317.42171875 385.5546875 318.09375 C386.13379883 318.43277344 386.71291016 318.77179688 387.30957031 319.12109375 C389.07025748 320.15164505 390.83541585 321.17415147 392.6015625 322.1953125 C395.77288592 324.03859888 398.94008254 325.88182712 402.078125 327.78125 C403.6340184 328.51467117 403.6340184 328.51467117 405.22134399 329.26290894 C408.3560958 332.02628988 408.51061867 332.34333821 408.7996521 336.24847412 C408.81704972 338.12362482 408.80107996 339.99925803 408.75927734 341.87402344 C408.7601535 342.89873245 408.76102966 343.92344147 408.76193237 344.97920227 C408.75775131 348.36711793 408.71107167 351.75305514 408.6640625 355.140625 C408.65287229 357.48902301 408.64433128 359.83743503 408.63833618 362.18585205 C408.61542455 368.36760107 408.55647948 374.54850455 408.4901123 380.72991943 C408.42874111 387.03727784 408.4013321 393.34477285 408.37109375 399.65234375 C408.30673991 412.02901739 408.20433085 424.40506339 408.078125 436.78125 C407.56476341 437.06578946 407.05140182 437.35032892 406.52248383 437.64349079 C404.16769411 438.94906096 401.81333654 440.25540855 399.45898438 441.56176758 C398.65152771 442.00929634 397.84407104 442.4568251 397.012146 442.91791534 C390.81961398 446.35503031 384.68144709 449.87548314 378.578125 453.46875 C376.53287607 454.66721973 374.48729072 455.8651155 372.44140625 457.0625 C371.40193848 457.6709375 370.3624707 458.279375 369.29150391 458.90625 C362.7052513 462.74931488 356.09891075 466.55788766 349.48339844 470.3503418 C344.4304553 473.25015525 339.40065407 476.17490395 334.42578125 479.20703125 C333.55928955 479.72885986 332.69279785 480.25068848 331.80004883 480.78833008 C330.20418247 481.75215455 328.61607664 482.72900326 327.0378418 483.72143555 C325.98270386 484.35432495 325.98270386 484.35432495 324.90625 485 C324.3071582 485.37060547 323.70806641 485.74121094 323.09082031 486.12304688 C319.31775435 487.35693647 316.06591204 486.2454733 312.57470703 484.60473633 C311.75341309 484.11255615 310.93211914 483.62037598 310.0859375 483.11328125 C308.67658936 482.2790564 308.67658936 482.2790564 307.23876953 481.42797852 C305.73612549 480.5200354 305.73612549 480.5200354 304.203125 479.59375 C302.03658972 478.30707042 299.86991934 477.02061827 297.703125 475.734375 C296.5996875 475.07501953 295.49625 474.41566406 294.359375 473.73632812 C289.32716561 470.73797003 284.26578993 467.79029687 279.203125 464.84375 C278.2342334 464.27930176 277.2653418 463.71485352 276.26708984 463.13330078 C274.26518652 461.96708296 272.26306709 460.80123604 270.26074219 459.63574219 C268.0259285 458.33352949 265.79213581 457.02968591 263.55957031 455.72363281 C260.5656829 453.97239162 257.56890454 452.2261911 254.57025146 450.48312378 C252.86275666 449.48891469 251.15815247 448.48974643 249.45361328 447.49047852 C248.4170459 446.88905029 247.38047852 446.28762207 246.3125 445.66796875 C244.93916504 444.86685669 244.93916504 444.86685669 243.53808594 444.04956055 C240.44335057 442.42948947 240.44335057 442.42948947 237.078125 441.78125 C234.57314695 442.72453427 234.57314695 442.72453427 231.9921875 444.2890625 C230.9906665 444.85681396 229.98914551 445.42456543 228.95727539 446.00952148 C227.88340576 446.63544189 226.80953613 447.2613623 225.703125 447.90625 C224.02561157 448.86543335 224.02561157 448.86543335 222.31420898 449.84399414 C213.42831403 454.94293252 204.60810227 460.15476431 195.8046875 465.39453125 C188.12739238 469.95284036 180.38302463 474.3951928 172.64282227 478.84545898 C171.59924561 479.44559814 170.55566895 480.0457373 169.48046875 480.6640625 C168.09589478 481.45901123 168.09589478 481.45901123 166.68334961 482.27001953 C164.05057025 483.74267931 164.05057025 483.74267931 161.61547852 485.53857422 C158.24817974 487.18771795 156.64906127 486.81756072 153.078125 485.78125 C150.10546875 484.35424805 150.10546875 484.35424805 147.015625 482.54296875 C145.88898438 481.88748047 144.76234375 481.23199219 143.6015625 480.55664062 C142.4270541 479.86072642 141.25257516 479.1647625 140.078125 478.46875 C138.90411752 477.78369622 137.72964185 477.09944413 136.5546875 476.41601562 C131.28295958 473.33078813 126.16573607 470.17299071 121.078125 466.78125 C123.388125 462.16125 125.698125 457.54125 128.078125 452.78125 C132.61703115 454.29421872 135.42853438 455.42372573 139.30078125 457.890625 C140.25146484 458.47972656 141.20214844 459.06882812 142.18164062 459.67578125 C144.1641558 460.91894258 146.14070357 462.17166849 148.11132812 463.43359375 C149.06072266 464.01753906 150.01011719 464.60148437 150.98828125 465.203125 C152.27424194 466.01668457 152.27424194 466.01668457 153.58618164 466.84667969 C156.05079672 468.04468859 156.05079672 468.04468859 158.56738281 467.12670898 C161.18074246 465.72625926 163.77708522 464.32377248 166.33984375 462.83203125 C167.87547974 461.94185303 167.87547974 461.94185303 169.44213867 461.03369141 C170.53888916 460.39351074 171.63563965 459.75333008 172.765625 459.09375 C173.91948108 458.4233268 175.07353731 457.75324795 176.2277832 457.08349609 C178.02388738 456.04112042 179.81978245 454.99839576 181.61491394 453.9543457 C185.75243269 451.54803744 189.89733087 449.15504919 194.046875 446.76953125 C209.06889995 438.16031972 209.06889995 438.16031972 223.89331055 429.21728516 C227.86666686 426.78125 227.86666686 426.78125 230.078125 426.78125 C230.34203154 415.87146237 230.51310602 404.96445855 230.56778049 394.05150032 C230.59604804 388.98284062 230.65549191 383.91865764 230.7878418 378.8515625 C230.91456717 373.9548477 230.95722917 369.06375571 230.94322014 364.16549301 C230.95235981 362.30334042 230.99110045 360.44107673 231.06073189 358.58020401 C231.43598148 349.9543736 231.43598148 349.9543736 229.078125 341.78125 C224.94604623 337.43528517 219.56722947 335.01370328 214.1257925 332.68700218 C211.30495026 331.43924882 208.70933235 329.87894002 206.08203125 328.26953125 C204.26849612 327.21048024 202.45469271 326.1518885 200.640625 325.09375 C199.65489502 324.51850586 198.66916504 323.94326172 197.65356445 323.35058594 C192.06601265 320.09362621 186.47102972 316.84991735 180.8671875 313.62109375 C180.27169601 313.27794632 179.67620453 312.93479889 179.06266785 312.58125305 C176.16528255 310.91215315 173.26691809 309.24479539 170.36743164 307.5793457 C169.32707764 306.98081787 168.28672363 306.38229004 167.21484375 305.765625 C166.29405029 305.23678711 165.37325684 304.70794922 164.42456055 304.16308594 C162.60749733 303.09300189 160.83270554 301.95097036 159.078125 300.78125 C154.78451162 301.09220706 151.75027409 302.2532768 148.0859375 304.44921875 C147.14580811 305.00569092 146.20567871 305.56216309 145.23706055 306.13549805 C144.23586182 306.74047119 143.23466309 307.34544434 142.203125 307.96875 C140.04571707 309.25024271 137.88816076 310.53148565 135.73046875 311.8125 C134.62815918 312.47121094 133.52584961 313.12992187 132.39013672 313.80859375 C127.20298854 316.89809377 121.98426737 319.93285638 116.765625 322.96875 C114.78764721 324.12089942 112.80978112 325.27324063 110.83203125 326.42578125 C109.87699707 326.98217285 108.92196289 327.53856445 107.93798828 328.11181641 C105.09502968 329.77138196 102.25619206 331.43782052 99.41796875 333.10546875 C97.67974287 334.12249047 95.94146446 335.13942242 94.203125 336.15625 C93.00755981 336.86237427 93.00755981 336.86237427 91.7878418 337.58276367 C86.30463553 340.78125 86.30463553 340.78125 84.078125 340.78125 C84.078125 369.16125 84.078125 397.54125 84.078125 426.78125 C85.728125 427.44125 87.378125 428.10125 89.078125 428.78125 C91.13082859 429.89668203 93.16470536 431.04712647 95.18359375 432.22265625 C96.03151237 432.71426491 96.03151237 432.71426491 96.89656067 433.21580505 C98.68809588 434.2553126 100.4769317 435.29936137 102.265625 436.34375 C104.06557909 437.39073812 105.86607341 438.43678969 107.66682434 439.48240662 C109.29338322 440.42750328 110.91857711 441.37494801 112.54370117 442.32250977 C114.03387471 443.18021007 115.54026493 444.01231996 117.078125 444.78125 C115.31383301 449.75334562 112.6842084 454.21563061 110.078125 458.78125 C105.59120396 458.19679495 102.46596994 456.45991224 98.60546875 454.1484375 C97.36409278 453.41769604 96.12255135 452.6872356 94.88085938 451.95703125 C92.94057012 450.80473048 91.00278011 449.64853695 89.06811523 448.48681641 C87.19086859 447.36327134 85.30518203 446.2551348 83.41796875 445.1484375 C82.29769287 444.47925293 81.17741699 443.81006836 80.02319336 443.12060547 C77.29541833 441.6005535 77.29541833 441.6005535 74.96801758 441.91772461 C72.74570608 442.93313809 70.62382615 444.01973187 68.5 445.23046875 C67.59918701 445.7414209 66.69837402 446.25237305 65.77026367 446.77880859 C64.79935791 447.33648926 63.82845215 447.89416992 62.828125 448.46875 C61.80887939 449.04963379 60.78963379 449.63051758 59.73950195 450.22900391 C50.56697753 455.46944317 41.44418892 460.79496549 32.328125 466.1328125 C27.85795531 468.74757522 23.37809983 471.34479473 18.890625 473.9296875 C18.29365311 474.27357513 17.69668121 474.61746277 17.08161926 474.97177124 C14.17734664 476.64412815 11.27207789 478.31472503 8.3659668 479.98388672 C7.32609619 480.58217285 6.28622559 481.18045898 5.21484375 481.796875 C4.29405029 482.32571289 3.37325684 482.85455078 2.42456055 483.39941406 C0.60749733 484.46949811 -1.16729446 485.61152964 -2.921875 486.78125 C-7.73753382 486.49577158 -11.11294195 484.82300643 -15.24609375 482.4296875 C-15.83300491 482.09256744 -16.41991608 481.75544739 -17.02461243 481.40811157 C-18.89126644 480.33265815 -20.75013362 479.2444566 -22.609375 478.15625 C-23.83743753 477.44843205 -25.06595007 476.74139427 -26.29492188 476.03515625 C-33.62626788 471.80373969 -40.82289461 467.39490422 -47.921875 462.78125 C-42.12109375 451.82421875 -42.12109375 451.82421875 -38.921875 448.78125 C-38.10509277 449.25022705 -37.28831055 449.7192041 -36.44677734 450.20239258 C-33.39479838 451.9537163 -30.3419726 453.70354562 -27.28857422 455.45239258 C-25.97117824 456.20733572 -24.65411529 456.96286033 -23.33740234 457.71899414 C-21.43676156 458.81031589 -19.53490391 459.89949024 -17.6328125 460.98828125 C-16.49118652 461.6428833 -15.34956055 462.29748535 -14.17333984 462.97192383 C-13.10035645 463.56900146 -12.02737305 464.1660791 -10.921875 464.78125 C-9.89191406 465.39693848 -8.86195312 466.01262695 -7.80078125 466.64697266 C-5.03428356 468.06401004 -5.03428356 468.06401004 -2.51025391 467.15063477 C-1.73085449 466.67940186 -0.95145508 466.20816895 -0.1484375 465.72265625 C1.19335571 464.93677124 1.19335571 464.93677124 2.56225586 464.13500977 C3.51624268 463.54389404 4.47022949 462.95277832 5.453125 462.34375 C6.46189697 461.74554443 7.47066895 461.14733887 8.51000977 460.53100586 C10.64109519 459.26586439 12.76640723 457.99095393 14.88623047 456.70703125 C18.91432063 454.27674402 22.9818408 451.91841651 27.05273438 449.56079102 C34.34080137 445.33724329 41.59993328 441.06427437 48.85546875 436.78515625 C49.95963135 436.13603271 51.06379395 435.48690918 52.20141602 434.81811523 C54.33300107 433.56483476 56.46247816 432.30796057 58.58959961 431.04711914 C59.54229736 430.48758545 60.49499512 429.92805176 61.4765625 429.3515625 C62.31880371 428.85414551 63.16104492 428.35672852 64.02880859 427.84423828 C66.078125 426.78125 66.078125 426.78125 68.078125 426.78125 C68.55240024 415.95897356 68.88220168 405.14243322 69.03409004 394.31056118 C69.10906575 389.27805605 69.23129116 384.25651379 69.46679688 379.22875977 C71.55975445 357.797248 71.55975445 357.797248 64.62017822 338.55020142 C58.58666666 333.43570676 51.90228806 330.60674467 44.47955322 328.06732178 C38.82789938 325.93044514 33.83413529 322.74699718 28.703125 319.59375 C26.74220053 318.44863145 24.77898878 317.30741151 22.8125 316.171875 C18.94976999 313.90878199 15.13495556 311.5840125 11.34375 309.203125 C10.43415527 308.63746826 9.52456055 308.07181152 8.58740234 307.48901367 C6.88061917 306.42302555 5.18234498 305.34324051 3.49462891 304.24731445 C2.73585449 303.77511475 1.97708008 303.30291504 1.1953125 302.81640625 C0.54159668 302.3975415 -0.11211914 301.97867676 -0.78564453 301.54711914 C-4.71924875 300.13686583 -7.94751394 301.32133671 -11.60888672 303.04956055 C-12.51396973 303.58363525 -13.41905273 304.11770996 -14.3515625 304.66796875 C-15.38224854 305.26971924 -16.41293457 305.87146973 -17.47485352 306.49145508 C-18.57112061 307.1439624 -19.6673877 307.79646973 -20.796875 308.46875 C-21.95252413 309.14761364 -23.10870146 309.82557883 -24.26538086 310.50268555 C-26.64797458 311.89912741 -29.02754527 313.30051882 -31.40478516 314.70605469 C-35.74526796 317.27060766 -40.10452404 319.80266383 -44.46289062 322.33666992 C-51.03384672 326.15786991 -57.59961186 329.98685129 -64.12890625 333.87890625 C-65.31987915 334.58696411 -65.31987915 334.58696411 -66.53491211 335.30932617 C-68.00028517 336.18190719 -69.46348869 337.05814621 -70.92407227 337.9387207 C-75.69993283 340.78125 -75.69993283 340.78125 -77.921875 340.78125 C-78.32579714 351.76893478 -78.60283635 362.75204724 -78.72240353 373.74671459 C-78.78184297 378.85420611 -78.88325709 383.95333522 -79.08422852 389.05737305 C-80.9861338 410.41640595 -80.9861338 410.41640595 -74.60089111 429.89849854 C-69.12732541 434.51974136 -63.11671257 437.11191339 -56.22950745 438.94258118 C-53.921875 439.78125 -53.921875 439.78125 -51.921875 442.78125 C-53.04039719 444.76408479 -54.16688825 446.74242623 -55.296875 448.71875 C-55.92335937 449.82089844 -56.54984375 450.92304688 -57.1953125 452.05859375 C-58.921875 454.78125 -58.921875 454.78125 -60.921875 455.78125 C-63.42456055 454.58129883 -63.42456055 454.58129883 -66.55859375 452.73828125 C-67.69361328 452.07634766 -68.82863281 451.41441406 -69.99804688 450.73242188 C-71.20195372 450.01975217 -72.40572875 449.30685974 -73.609375 448.59375 C-74.79318447 447.89964763 -75.97742472 447.20627942 -77.16210938 446.51367188 C-79.36825612 445.22306768 -81.57114459 443.92746639 -83.7722168 442.62817383 C-86.04763822 441.29389253 -88.32779094 439.97288201 -90.61872864 438.66581726 C-91.70876694 438.04391006 -92.79880524 437.42200287 -93.921875 436.78125 C-94.22333867 423.22974006 -94.45419523 409.67902974 -94.59543324 396.12484741 C-94.66322975 389.83056057 -94.75514203 383.53857031 -94.90258789 377.24560547 C-95.04404764 371.16996804 -95.12160835 365.09653593 -95.15527916 359.01937866 C-95.17926556 356.70345325 -95.22611177 354.38764621 -95.29636574 352.07266235 C-95.8110492 334.40725602 -95.8110492 334.40725602 -92.68123055 330.05671883 C-89.22766037 326.90204279 -85.28285943 325.40285107 -80.921875 323.78125 C-78.88725382 322.63826897 -76.86925429 321.4645369 -74.87890625 320.24609375 C-72.8318068 319.06843728 -70.78359594 317.89271101 -68.734375 316.71875 C-66.4635381 315.41276662 -64.19270488 314.10677684 -61.921875 312.80078125 C-60.75787026 312.13222364 -59.59380756 311.46376694 -58.4296875 310.79541016 C-52.69550812 307.5032044 -46.96436448 304.20574332 -41.234375 300.90625 C-40.22157471 300.32480225 -39.20877441 299.74335449 -38.1652832 299.14428711 C-36.21156966 298.01942174 -34.26842453 296.87592592 -32.33825684 295.71112061 C-29.90313012 294.33554852 -27.65282458 293.20750257 -25.10392761 292.12226868 C-17.87153923 288.87162414 -17.87153923 288.87162414 -13.03540993 282.88695526 C-11.57634059 277.31404456 -11.76818255 271.59685765 -11.859375 265.87890625 C-11.84416575 264.03238684 -11.82480753 262.1858974 -11.80151367 260.33946228 C-11.77046553 256.47874801 -11.79428724 252.62324118 -11.85644531 248.76293945 C-11.93073253 243.83444044 -11.86081613 238.92032157 -11.74845886 233.99297428 C-11.67892553 230.18192552 -11.6902295 226.37426255 -11.72488403 222.5628643 C-11.73115411 220.74845439 -11.71198875 218.93375819 -11.66598511 217.11992073 C-11.44624405 208.70187523 -11.44624405 208.70187523 -13.921875 200.78125 C-18.09230938 196.48900283 -23.45480458 194.04657055 -28.87917042 191.69563103 C-31.69263201 190.43623408 -34.29089782 188.87596595 -36.91796875 187.26953125 C-38.73151528 186.21049976 -40.54531909 185.15190872 -42.359375 184.09375 C-43.84884644 183.22435791 -43.84884644 183.22435791 -45.3684082 182.33740234 C-50.83034898 179.15315091 -56.30045169 175.98372265 -61.78125 172.83203125 C-63.49163452 171.84819458 -63.49163452 171.84819458 -65.23657227 170.84448242 C-67.40787765 169.59670874 -69.58016465 168.35064083 -71.75366211 167.10668945 C-73.78442871 165.93996835 -75.80078334 164.74778288 -77.80151367 163.53027344 C-80.93101614 161.67844909 -80.93101614 161.67844909 -84.55200195 160.38378906 C-88.64522665 158.58264767 -91.03476696 157.2238402 -93.921875 153.78125 C-96.0790692 146.22820342 -95.13598684 138.02437295 -94.734375 130.28125 C-94.66911907 128.10173418 -94.60981155 125.92203162 -94.55664062 123.7421875 C-94.41381815 118.41724853 -94.18984365 113.10129989 -93.921875 107.78125 C-88.641875 107.78125 -83.361875 107.78125 -77.921875 107.78125 C-77.921875 119.99125 -77.921875 132.20125 -77.921875 144.78125 C-75.941875 145.44125 -73.961875 146.10125 -71.921875 146.78125 C-69.41650615 148.14987136 -66.98299792 149.54989931 -64.546875 151.03125 C-63.03035027 151.93817314 -61.51339826 152.84438205 -59.99609375 153.75 C-59.18060059 154.23855469 -58.36510742 154.72710937 -57.52490234 155.23046875 C-51.81816954 158.63031557 -46.06945098 161.95925337 -40.32348633 165.29223633 C-34.92986458 168.4251609 -29.56212527 171.59324769 -24.2265625 174.82421875 C-22.59569702 175.80213379 -22.59569702 175.80213379 -20.93188477 176.79980469 C-18.83933311 178.05562327 -16.7535436 179.32279622 -14.67553711 180.60253906 C-13.73202393 181.16553711 -12.78851074 181.72853516 -11.81640625 182.30859375 C-10.98987549 182.81124756 -10.16334473 183.31390137 -9.31176758 183.83178711 C-6.30640284 185.02576642 -4.97279686 184.78828449 -1.921875 183.78125 C0.68447204 182.5357228 0.68447204 182.5357228 3.33984375 180.9296875 C4.87523804 180.03479614 4.87523804 180.03479614 6.44165039 179.12182617 C7.53856201 178.47318604 8.63547363 177.8245459 9.765625 177.15625 C10.92070875 176.48013395 12.07623418 175.80477196 13.23217773 175.13012695 C15.63986839 173.72420748 18.04561378 172.31503836 20.45019531 170.90380859 C26.16023155 167.5573169 31.90274825 164.26720601 37.640625 160.96875 C40.60709658 159.26257865 43.56883219 157.55739166 46.49900818 155.78947449 C49.05353809 154.29427731 51.63876166 153.08134484 54.35910034 151.91746521 C62.48581971 148.34397705 62.48581971 148.34397705 68.04453087 141.78283501 C69.54444085 136.01324192 69.17800899 130.11648002 68.95703125 124.2109375 C68.947748 122.31953072 68.94599129 120.42807344 68.95140076 118.53665161 C68.94553584 113.58530664 68.83826156 108.64128856 68.70898438 103.6918335 C68.59501629 98.6309381 68.57809514 93.56979019 68.55273438 88.5078125 C68.48890699 78.59634782 68.31781446 68.68991369 68.078125 58.78125 C66.92592216 58.33184052 66.92592216 58.33184052 65.7504425 57.87335205 C62.77578889 56.65769362 60.09552578 55.17814336 57.30859375 53.578125 C56.18412842 52.93431885 55.05966309 52.2905127 53.90112305 51.62719727 C52.68920242 50.92870074 51.47737186 50.23004794 50.265625 49.53125 C49.01157414 48.81094323 47.75742245 48.09081197 46.50317383 47.37084961 C38.40950602 42.72020609 30.33296945 38.0398902 22.265625 33.34375 C21.28247314 32.77366211 20.29932129 32.20357422 19.28637695 31.61621094 C14.96131239 29.09775386 10.67232486 26.55092104 6.46484375 23.83984375 C5.43290894 23.18423462 5.43290894 23.18423462 4.38012695 22.51538086 C3.14691003 21.72557831 1.92408026 20.91916248 0.71557617 20.09204102 C-1.95050841 18.39140894 -3.47559244 17.71712894 -6.640625 18.171875 C-11.50417366 20.55732982 -16.14481436 23.25918039 -20.796875 26.03125 C-22.95434359 27.30352702 -25.11189812 28.5756583 -27.26953125 29.84765625 C-28.92299561 30.82629639 -28.92299561 30.82629639 -30.60986328 31.82470703 C-34.80354564 34.30208949 -39.00789023 36.76055339 -43.22094727 39.20483398 C-45.23036409 40.38105019 -47.22969372 41.57467053 -49.21850586 42.78540039 C-53.93330994 45.62991418 -58.40631332 48.06755145 -63.6171875 49.875 C-71.4243762 52.78792155 -71.4243762 52.78792155 -76.921875 58.78125 C-79.54324941 70.21893177 -78.63974372 82.16426137 -77.921875 93.78125 C-83.201875 93.78125 -88.481875 93.78125 -93.921875 93.78125 C-93.921875 78.93125 -93.921875 64.08125 -93.921875 48.78125 C-87.734375 45.254375 -87.734375 45.254375 -81.421875 41.65625 C-71.21553152 35.83026289 -61.03880201 29.95712405 -50.89599609 24.02099609 C-42.228191 18.95043855 -33.53090317 13.93201153 -24.82373047 8.92944336 C-23.2983667 8.05171265 -23.2983667 8.05171265 -21.7421875 7.15625 C-20.75508789 6.60324219 -19.76798828 6.05023438 -18.75097656 5.48046875 C-15.89469077 3.84070733 -15.89469077 3.84070733 -13.36621094 1.80078125 C-8.27715676 -2.00131578 -5.86390472 -2.870033 0 0 Z " fill="#000000" transform="translate(93.921875,25.21875)"/>
<path d="M0 0 C10.77597835 6.88755898 17.55338854 15.72602443 21.61328125 27.828125 C23.62811685 39.14376737 22.59523591 51.31920222 16.64453125 61.265625 C15.19843982 63.29713145 13.66326801 65.14342239 12 67 C11.49855469 67.60457031 10.99710937 68.20914063 10.48046875 68.83203125 C3.22871389 76.93070638 -7.25312425 81.30807786 -18 82 C-25.63719376 82.06472198 -31.99320875 81.10956065 -38.87890625 77.7421875 C-41.45790163 76.83977659 -42.50021655 76.93081551 -45 78 C-46.86928561 79.54476966 -46.86928561 79.54476966 -48.5625 81.4375 C-50.67886307 83.69526817 -52.39018785 85.26012523 -55 87 C-54.72285156 87.680625 -54.44570313 88.36125 -54.16015625 89.0625 C-52.85969226 92.35525731 -51.63958157 95.67005462 -50.4375 99 C-50.00308594 100.19625 -49.56867188 101.3925 -49.12109375 102.625 C-44.05901214 117.86415857 -46.46486055 134.78415 -53.125 149.0625 C-60.45571479 163.37205527 -71.71836293 174.2884881 -86.8671875 180.00390625 C-102.49197962 184.97188878 -115.28787126 184.49158417 -131 181 C-134.3 185.62 -137.6 190.24 -141 195 C-139.36552169 198.26895662 -137.82340655 200.59109152 -135.625 203.4375 C-128.2148836 214.00349061 -126.30403819 226.11856959 -128.47265625 238.75390625 C-131.34606293 249.74855816 -138.13532646 259.83678828 -147.8984375 265.7578125 C-159.7256564 271.92464956 -170.57587487 274.05115658 -183.6875 270.375 C-196.11739909 266.14259709 -204.85843964 258.32809078 -210.77734375 246.6796875 C-215.77893541 235.71773261 -215.31805196 223.38371503 -211.37890625 212.1015625 C-206.17503128 200.39652927 -197.22793272 192.14006674 -185.3125 187.5 C-175.72428533 184.67110116 -165.47510383 184.93560678 -156 188 C-155.74476563 187.27167969 -155.48953125 186.54335937 -155.2265625 185.79296875 C-153.93590079 182.85404162 -152.41218259 180.78143117 -150.375 178.3125 C-147.76701265 175.50335008 -147.76701265 175.50335008 -147 172 C-148.52029885 170.50174677 -148.52029885 170.50174677 -150.5 168.9375 C-162.82388815 158.3306968 -170.98288496 145.37749371 -173 129 C-173.8687331 114.7374662 -173.8687331 114.7374662 -172 111 C-183.32052494 108.59941506 -194.64653524 106.24014551 -206 104 C-206.32871094 104.556875 -206.65742188 105.11375 -206.99609375 105.6875 C-213.36232137 115.90106844 -221.87437318 123.35509147 -233.57421875 126.74609375 C-245.13203869 129.31253156 -256.87577498 128.21431523 -267.3125 122.3125 C-277.46272347 115.56210866 -284.45090905 106.42570841 -287.671875 94.515625 C-289.39676018 81.29150528 -287.71102068 69.07995854 -279.75 58.09375 C-272.89151008 49.8880567 -264.53223355 44.30661571 -254 42 C-239.45465744 41.12064827 -227.66812904 42.45334897 -216 52 C-205.54231934 61.78299159 -202.53891745 73.14974294 -201 87 C-184.17 90.96 -184.17 90.96 -167 95 C-166.34 93.02 -165.68 91.04 -165 89 C-155.74426219 74.0418766 -142.69074942 63.3537312 -125.51171875 58.84765625 C-107.50979394 54.96377641 -89.45238915 58.10270836 -74 68 C-71.25283433 69.92170571 -68.62956364 71.91619485 -66 74 C-62.7 71.03 -59.4 68.06 -56 65 C-56.94875 63.205625 -57.8975 61.41125 -58.875 59.5625 C-64.56081087 48.11041868 -65.75001672 36.97999654 -61.97265625 24.62890625 C-57.28310217 11.95392675 -49.18417057 3.75018254 -37 -2 C-25.70691321 -6.01413037 -10.55828279 -5.94561107 0 0 Z M-36 16 C-37.051875 16.70125 -38.10375 17.4025 -39.1875 18.125 C-44.74808387 23.00190553 -47.57822813 30.86663565 -48.3125 38.0625 C-47.71292328 45.61716666 -45.12409894 52.95634382 -39.8203125 58.5 C-33.48821369 63.71786683 -26.20230878 66.38448322 -18 66 C-9.39346656 64.95107874 -3.61352408 60.41252933 2 54 C6.6929266 47.39603628 7.0795922 39.86287061 6 32 C3.31899139 23.11684244 -2.43427765 17.83074785 -10.125 13.0625 C-18.54763314 9.96452 -28.70866795 10.82605712 -36 16 Z M-265.9375 66.8125 C-270.97062282 73.17512697 -272.61310179 79.09231274 -272.34375 87.1953125 C-271.43125685 94.64042707 -268.48542829 100.51944577 -262.90625 105.53125 C-256.49321163 110.4724435 -250.12172317 112.27845908 -242 112 C-234.10149916 110.67509018 -228.24068274 106.24068274 -222.6875 100.6875 C-218.7265702 94.37935253 -216.87979665 87.41823552 -218 80 C-220.60172968 70.76805597 -224.85831542 64.98372383 -233.03515625 59.98046875 C-244.37082914 54.32390037 -257.5864099 57.97324597 -265.9375 66.8125 Z M-130 78 C-131.30710937 78.67095703 -131.30710937 78.67095703 -132.640625 79.35546875 C-143.604476 85.47749932 -150.76078998 94.1522638 -155.10546875 106.01953125 C-158.96761066 119.85434008 -157.29892098 132.67833439 -150.3125 145.25 C-142.89984499 156.59890358 -132.40777113 164.07806907 -119.25 167.4375 C-104.80784053 169.83122809 -92.18996652 165.8666729 -80.19140625 157.78125 C-71.96637876 151.4575925 -65.4143006 140.49819899 -63.28125 130.38671875 C-61.58115978 115.95956425 -63.89499059 104.06941618 -72 92 C-80.06908719 82.36192363 -90.34679798 75.1640835 -103.12255859 73.76806641 C-112.68608164 73.11427369 -121.33300589 73.54229443 -130 78 Z M-192 212 C-197.1111465 219.28083547 -198.89953989 225.04315284 -198 234 C-196.01830892 242.03420541 -191.98864824 247.94153902 -184.91015625 252.28125 C-177.66451529 256.05923784 -170.62125591 257.17124713 -162.625 255.0625 C-155.87529371 252.55914273 -150.24887908 247.6421435 -146.48046875 241.5390625 C-143.03324668 233.81631058 -142.80017648 226.58881299 -145.75 218.6875 C-149.39123431 210.63911658 -154.29174784 207.0664569 -162 203 C-173.20071929 199.2664269 -184.61676137 202.92916397 -192 212 Z " fill="#000000" transform="translate(490,4)"/>
<path d="M0 0 C1.640625 2.3984375 1.640625 2.3984375 3.25 5.375 C3.79140625 6.35210937 4.3328125 7.32921875 4.890625 8.3359375 C6 11 6 11 5 14 C3.09594727 15.38769531 3.09594727 15.38769531 0.56640625 16.828125 C-0.38065186 17.3737207 -1.32770996 17.91931641 -2.3034668 18.48144531 C-3.33769775 19.06506836 -4.37192871 19.64869141 -5.4375 20.25 C-6.49686768 20.85682617 -7.55623535 21.46365234 -8.64770508 22.08886719 C-10.91365953 23.38673003 -13.18155346 24.6812114 -15.45117188 25.97265625 C-19.04796138 28.02242348 -22.6266539 30.10253962 -26.203125 32.1875 C-27.3821705 32.87349673 -28.56128756 33.5593705 -29.74047852 34.24511719 C-32.00478773 35.56210191 -34.26832189 36.88042025 -36.53100586 38.20019531 C-37.56620361 38.79928711 -38.60140137 39.39837891 -39.66796875 40.015625 C-40.57828857 40.54446289 -41.4886084 41.07330078 -42.42651367 41.61816406 C-43.27576416 42.07416992 -44.12501465 42.53017578 -45 43 C-45.80904785 43.45375 -46.6180957 43.9075 -47.45166016 44.375 C-51.20799263 45.29626951 -52.83501511 43.93405404 -56.10546875 41.984375 C-56.67074783 41.65334778 -57.23602692 41.32232056 -57.81843567 40.98126221 C-59.6187066 39.92095589 -61.40249732 38.83577039 -63.1875 37.75 C-64.39944272 37.03355036 -65.61232506 36.31868763 -66.82617188 35.60546875 C-75.57784657 30.42215343 -75.57784657 30.42215343 -78 28 C-77.63650459 24.44238539 -75.78870096 21.74343134 -73.9375 18.75 C-73.38964844 17.85796875 -72.84179688 16.9659375 -72.27734375 16.046875 C-71.64505859 15.03367187 -71.64505859 15.03367187 -71 14 C-67.84777345 15.1060444 -65.06518715 16.50493873 -62.22265625 18.234375 C-61.54396484 18.64300781 -60.86527344 19.05164063 -60.16601562 19.47265625 C-58.75953228 20.32673248 -57.36102157 21.19407318 -55.97070312 22.07421875 C-51.83493908 24.55068573 -51.83493908 24.55068573 -47.1328125 24.63671875 C-42.59355266 22.26521018 -38.19271591 19.71530144 -33.8125 17.0625 C-31.85440963 15.89412397 -29.89607136 14.72616331 -27.9375 13.55859375 C-25.01291097 11.80718545 -22.0895263 10.05382383 -19.16796875 8.29736328 C-16.55491233 6.73055745 -13.93456506 5.17666751 -11.3125 3.625 C-10.51755127 3.14297119 -9.72260254 2.66094238 -8.90356445 2.16430664 C-7.80081177 1.51449829 -7.80081177 1.51449829 -6.67578125 0.8515625 C-5.7153894 0.27656006 -5.7153894 0.27656006 -4.7355957 -0.31005859 C-3 -1 -3 -1 0 0 Z " fill="#000000" transform="translate(300,433)"/>
<path d="M0 0 C22.90824548 7.5510304 22.90824548 7.5510304 30 16 C33.67048849 25.79461115 32.38310055 36.84900847 31.64794922 47.09283447 C31.39996614 50.91805534 31.29233695 54.74714424 31.171875 58.578125 C30.9162512 66.06381074 30.49553662 73.52565595 30 81 C24.72 81 19.44 81 14 81 C14.07444336 79.39672852 14.14888672 77.79345703 14.22558594 76.14160156 C14.47680592 70.14834031 14.59353233 64.15845561 14.67138672 58.16064453 C14.72338342 55.57405068 14.8110459 52.987904 14.93603516 50.40380859 C16.14365357 36.18753575 16.14365357 36.18753575 10.95092773 23.60180664 C5.55802646 19.23060838 -0.49758936 16.34920848 -7 14 C-6.30053874 10.01510243 -5.27210215 7.51554988 -2.9375 4.1875 C-2.38964844 3.39730469 -1.84179688 2.60710937 -1.27734375 1.79296875 C-0.64505859 0.90544922 -0.64505859 0.90544922 0 0 Z " fill="#000000" transform="translate(199,217)"/>
<path d="M0 0 C22.90824548 7.5510304 22.90824548 7.5510304 30 16 C33.67048849 25.79461115 32.38310055 36.84900847 31.64794922 47.09283447 C31.39996614 50.91805534 31.29233695 54.74714424 31.171875 58.578125 C30.9162512 66.06381074 30.49553662 73.52565595 30 81 C24.72 81 19.44 81 14 81 C14.07444336 79.39672852 14.14888672 77.79345703 14.22558594 76.14160156 C14.47680592 70.14834031 14.59353233 64.15845561 14.67138672 58.16064453 C14.72338342 55.57405068 14.8110459 52.987904 14.93603516 50.40380859 C16.14365357 36.18753575 16.14365357 36.18753575 10.95092773 23.60180664 C5.55802646 19.23060838 -0.49758936 16.34920848 -7 14 C-5.77843841 10.20816385 -4.56177743 6.96271291 -2.375 3.625 C-1.70597656 2.59246094 -1.70597656 2.59246094 -1.0234375 1.5390625 C-0.68570312 1.03117187 -0.34796875 0.52328125 0 0 Z " fill="#000000" transform="translate(442,358)"/>
<path d="M0 0 C10.1923259 0 16.81051466 2.04812295 24.24609375 9.078125 C30.83645825 16.299638 33 23.18526287 33 33 C27.72 33 22.44 33 17 33 C16.608125 31.618125 16.21625 30.23625 15.8125 28.8125 C14.31448452 24.41509973 12.82217762 21.82508781 9 19 C6.02369839 17.76445967 3.11196492 16.88249751 0 16 C0 10.72 0 5.44 0 0 Z " fill="#000000" transform="translate(380,92)"/>
<path d="M0 0 C5.28 0 10.56 0 16 0 C16 10.23 16 20.46 16 31 C10.72 31 5.44 31 0 31 C0 20.77 0 10.54 0 0 Z " fill="#000000" transform="translate(30,96)"/>
<path d="M0 0 C3.555782 1.34211975 6.79105167 2.92244697 10.08203125 4.8203125 C11.01337891 5.35527344 11.94472656 5.89023437 12.90429688 6.44140625 C13.86400391 6.99699219 14.82371094 7.55257813 15.8125 8.125 C16.79154297 8.68832031 17.77058594 9.25164062 18.77929688 9.83203125 C21.18789555 11.21844415 23.59471395 12.60785055 26 14 C24.8335158 17.80470079 23.55623932 21.04573999 21.375 24.375 C20.92898437 25.06335938 20.48296875 25.75171875 20.0234375 26.4609375 C19.68570313 26.96882813 19.34796875 27.47671875 19 28 C14.98260956 27.41432842 12.16648562 26.14706444 8.69921875 24.05859375 C7.72275391 23.47529297 6.74628906 22.89199219 5.74023438 22.29101562 C4.73283203 21.67935547 3.72542969 21.06769531 2.6875 20.4375 C1.66076172 19.82197266 0.63402344 19.20644531 -0.42382812 18.57226562 C-2.95320506 17.05463946 -5.47833212 15.53038935 -8 14 C-7.04661031 12.03925516 -6.0871246 10.08147348 -5.125 8.125 C-4.59132812 7.03445313 -4.05765625 5.94390625 -3.5078125 4.8203125 C-2 2 -2 2 0 0 Z " fill="#000000" transform="translate(41,432)"/>
<path d="M0 0 C4.97209562 1.76429199 9.43438061 4.3939166 14 7 C12.49579121 12.86641427 9.42383114 17.08754662 6 22 C-0.93 18.04 -0.93 18.04 -8 14 C-3.04464286 3.82142857 -3.04464286 3.82142857 0 0 Z " fill="#000000" transform="translate(79,454)"/>
<path d="M0 0 C3.57040303 0.65902299 6.17732255 2.16229158 9.25 4.0625 C10.14203125 4.61035156 11.0340625 5.15820312 11.953125 5.72265625 C12.96632813 6.35494141 12.96632813 6.35494141 14 7 C13.44010697 10.99012371 12.24330232 13.5255052 9.9375 16.8125 C9.11572266 17.99779297 9.11572266 17.99779297 8.27734375 19.20703125 C7.85582031 19.79871094 7.43429687 20.39039063 7 21 C1.68972746 19.53967505 -2.46330032 17.01679014 -7 14 C-5.53967505 8.68972746 -3.01679014 4.53669968 0 0 Z " fill="#000000" transform="translate(416,343)"/>
<path d="M0 0 C3.57040303 0.65902299 6.17732255 2.16229158 9.25 4.0625 C10.14203125 4.61035156 11.0340625 5.15820312 11.953125 5.72265625 C12.96632812 6.35494141 12.96632812 6.35494141 14 7 C12.6926925 10.43931834 11.18963666 13.61300905 9.375 16.8125 C8.92898437 17.60269531 8.48296875 18.39289063 8.0234375 19.20703125 C7.68570313 19.79871094 7.34796875 20.39039063 7 21 C1.68972746 19.53967505 -2.46330032 17.01679014 -7 14 C-6.44010697 10.00987629 -5.24330232 7.4744948 -2.9375 4.1875 C-2.38964844 3.39730469 -1.84179688 2.60710937 -1.27734375 1.79296875 C-0.64505859 0.90544922 -0.64505859 0.90544922 0 0 Z " fill="#000000" transform="translate(173,202)"/>
<path d="M0 0 C3.43931834 1.3073075 6.61300905 2.81036334 9.8125 4.625 C10.99779297 5.29402344 10.99779297 5.29402344 12.20703125 5.9765625 C12.79871094 6.31429688 13.39039063 6.65203125 14 7 C12.53967505 12.31027254 10.01679014 16.46330032 7 21 C3.00987629 20.44010697 0.4744948 19.24330232 -2.8125 16.9375 C-3.60269531 16.38964844 -4.39289063 15.84179688 -5.20703125 15.27734375 C-5.79871094 14.85582031 -6.39039063 14.43429687 -7 14 C-6.34097701 10.42959697 -4.83770842 7.82267745 -2.9375 4.75 C-2.38964844 3.85796875 -1.84179688 2.9659375 -1.27734375 2.046875 C-0.64505859 1.03367187 -0.64505859 1.03367187 0 0 Z " fill="#000000" transform="translate(203,432)"/>
<path d="M0 0 C5.28 0 10.56 0 16 0 C16 5.28 16 10.56 16 16 C10.72 16 5.44 16 0 16 C0 10.72 0 5.44 0 0 Z " fill="#000000" transform="translate(30,141)"/>
</svg>
